Radio Canada Display-Italic.ufo
<glyph name="exclam" format="2">
  <advance width="271"/>
  <unicode hex="0021"/>
  <outline>
    <contour>
      <point x="80" y="227" type="line"/>
      <point x="142" y="227" type="line"/>
      <point x="218" y="478" type="line"/>
      <point x="263" y="690" type="line"/>
      <point x="158" y="690" type="line"/>
      <point x="113" y="478" type="line"/>
    </contour>
    <contour>
      <point x="70" y="-10" type="curve"/>
      <point x="111" y="-10"/>
      <point x="141" y="19"/>
      <point x="141" y="61" type="curve"/>
      <point x="141" y="98"/>
      <point x="116" y="123"/>
      <point x="79" y="123" type="curve"/>
      <point x="38" y="123"/>
      <point x="9" y="94"/>
      <point x="9" y="50" type="curve"/>
      <point x="9" y="15"/>
      <point x="34" y="-10"/>
    </contour>
  </outline>
</glyph>
<glyph name="numbersign" format="2">
  <advance width="623"/>
  <unicode hex="0023"/>
  <outline>
    <contour>
      <point x="231" y="0" type="line"/>
      <point x="328" y="0" type="line"/>
      <point x="631" y="690" type="line"/>
      <point x="534" y="690" type="line"/>
    </contour>
    <contour>
      <point x="-12" y="192" type="line"/>
      <point x="519" y="192" type="line"/>
      <point x="537" y="278" type="line"/>
      <point x="6" y="278" type="line"/>
    </contour>
    <contour>
      <point x="-10" y="0" type="line"/>
      <point x="87" y="0" type="line"/>
      <point x="390" y="690" type="line"/>
      <point x="293" y="690" type="line"/>
    </contour>
    <contour>
      <point x="91" y="428" type="line"/>
      <point x="622" y="428" type="line"/>
      <point x="640" y="514" type="line"/>
      <point x="109" y="514" type="line"/>
    </contour>
  </outline>
</glyph>
<glyph name="dollar" format="2">
  <advance width="573"/>
  <unicode hex="0024"/>
  <outline>
    <contour>
      <point x="233" y="-10" type="curve"/>
      <point x="415" y="-10"/>
      <point x="498" y="92"/>
      <point x="498" y="196" type="curve"/>
      <point x="498" y="421"/>
      <point x="191" y="364"/>
      <point x="191" y="521" type="curve"/>
      <point x="191" y="566"/>
      <point x="225" y="607"/>
      <point x="316" y="607" type="curve"/>
      <point x="400" y="607"/>
      <point x="445" y="572"/>
      <point x="464" y="499" type="curve"/>
      <point x="561" y="532" type="line"/>
      <point x="531" y="637"/>
      <point x="453" y="700"/>
      <point x="331" y="700" type="curve"/>
      <point x="150" y="700"/>
      <point x="84" y="597"/>
      <point x="84" y="505" type="curve"/>
      <point x="84" y="295"/>
      <point x="389" y="334"/>
      <point x="389" y="187" type="curve"/>
      <point x="389" y="125"/>
      <point x="339" y="83"/>
      <point x="241" y="83" type="curve"/>
      <point x="151" y="83"/>
      <point x="108" y="120"/>
      <point x="91" y="196" type="curve"/>
      <point x="-9" y="163" type="line"/>
      <point x="17" y="55"/>
      <point x="97" y="-10"/>
    </contour>
    <contour>
      <point x="140" y="-110" type="line"/>
      <point x="230" y="-110" type="line"/>
      <point x="262" y="42" type="line"/>
      <point x="172" y="42" type="line"/>
    </contour>
    <contour>
      <point x="302" y="652" type="line"/>
      <point x="392" y="652" type="line"/>
      <point x="423" y="800" type="line"/>
      <point x="333" y="800" type="line"/>
    </contour>
  </outline>
</glyph>
<glyph name="percent" format="2">
  <advance width="739"/>
  <unicode hex="0025"/>
  <outline>
    <contour>
      <point x="22" y="0" type="line"/>
      <point x="135" y="0" type="line"/>
      <point x="720" y="690" type="line"/>
      <point x="607" y="690" type="line"/>
    </contour>
    <contour>
      <point x="222" y="374" type="curve" smooth="yes"/>
      <point x="327" y="374"/>
      <point x="404" y="457"/>
      <point x="404" y="568" type="curve" smooth="yes"/>
      <point x="404" y="640"/>
      <point x="351" y="700"/>
      <point x="263" y="700" type="curve" smooth="yes"/>
      <point x="158" y="700"/>
      <point x="81" y="617"/>
      <point x="81" y="506" type="curve" smooth="yes"/>
      <point x="81" y="434"/>
      <point x="134" y="374"/>
    </contour>
    <contour>
      <point x="228" y="450" type="curve" smooth="yes"/>
      <point x="191" y="450"/>
      <point x="168" y="472"/>
      <point x="168" y="514" type="curve" smooth="yes"/>
      <point x="168" y="568"/>
      <point x="208" y="624"/>
      <point x="257" y="624" type="curve" smooth="yes"/>
      <point x="294" y="624"/>
      <point x="317" y="602"/>
      <point x="317" y="560" type="curve" smooth="yes"/>
      <point x="317" y="506"/>
      <point x="277" y="450"/>
    </contour>
    <contour>
      <point x="479" y="-10" type="curve" smooth="yes"/>
      <point x="584" y="-10"/>
      <point x="661" y="73"/>
      <point x="661" y="184" type="curve" smooth="yes"/>
      <point x="661" y="256"/>
      <point x="608" y="316"/>
      <point x="520" y="316" type="curve" smooth="yes"/>
      <point x="415" y="316"/>
      <point x="338" y="233"/>
      <point x="338" y="122" type="curve" smooth="yes"/>
      <point x="338" y="50"/>
      <point x="391" y="-10"/>
    </contour>
    <contour>
      <point x="485" y="66" type="curve" smooth="yes"/>
      <point x="448" y="66"/>
      <point x="425" y="88"/>
      <point x="425" y="130" type="curve" smooth="yes"/>
      <point x="425" y="184"/>
      <point x="465" y="240"/>
      <point x="514" y="240" type="curve" smooth="yes"/>
      <point x="551" y="240"/>
      <point x="574" y="218"/>
      <point x="574" y="176" type="curve" smooth="yes"/>
      <point x="574" y="122"/>
      <point x="534" y="66"/>
    </contour>
  </outline>
</glyph>
<glyph name="ampersand" format="2">
  <advance width="592"/>
  <unicode hex="0026"/>
  <outline>
    <contour>
      <point x="173" y="-10" type="curve"/>
      <point x="340" y="-10"/>
      <point x="490" y="115"/>
      <point x="567" y="323" type="curve"/>
      <point x="472" y="343" type="line"/>
      <point x="413" y="184"/>
      <point x="300" y="80"/>
      <point x="188" y="80" type="curve"/>
      <point x="119" y="80"/>
      <point x="87" y="113"/>
      <point x="87" y="157" type="curve" smooth="yes"/>
      <point x="87" y="352"/>
      <point x="486" y="331"/>
      <point x="486" y="557" type="curve"/>
      <point x="486" y="635"/>
      <point x="417" y="700"/>
      <point x="324" y="700" type="curve"/>
      <point x="200" y="700"/>
      <point x="112" y="615"/>
      <point x="112" y="508" type="curve"/>
      <point x="112" y="452"/>
      <point x="141" y="398"/>
      <point x="183" y="331" type="curve" smooth="yes"/>
      <point x="391" y="0" type="line"/>
      <point x="509" y="0" type="line"/>
      <point x="245" y="417" type="line" smooth="yes"/>
      <point x="223" y="450"/>
      <point x="213" y="474"/>
      <point x="213" y="505" type="curve"/>
      <point x="213" y="573"/>
      <point x="256" y="613"/>
      <point x="313" y="613" type="curve"/>
      <point x="361" y="613"/>
      <point x="389" y="586"/>
      <point x="389" y="550" type="curve" smooth="yes"/>
      <point x="389" y="374"/>
      <point x="-16" y="397"/>
      <point x="-16" y="145" type="curve"/>
      <point x="-16" y="63"/>
      <point x="48" y="-10"/>
    </contour>
  </outline>
</glyph>
<glyph name="parenright" format="2">
  <advance width="325"/>
  <unicode hex="0029"/>
  <outline>
    <contour>
      <point x="-107" y="-65" type="curve"/>
      <point x="-77" y="-130" type="line"/>
      <point x="118" y="-57"/>
      <point x="261" y="170"/>
      <point x="261" y="448" type="curve"/>
      <point x="261" y="615"/>
      <point x="208" y="720"/>
      <point x="102" y="776" type="curve"/>
      <point x="59" y="715" type="line"/>
      <point x="130" y="663"/>
      <point x="162" y="592"/>
      <point x="162" y="439" type="curve"/>
      <point x="162" y="190"/>
      <point x="27" y="-4"/>
    </contour>
  </outline>
</glyph>
<glyph name="asterisk" format="2">
  <advance width="527"/>
  <unicode hex="002A"/>
  <outline>
    <contour>
      <point x="171" y="274" type="line"/>
      <point x="314" y="462" type="line"/>
      <point x="274" y="490" type="line"/>
      <point x="96" y="333" type="line"/>
    </contour>
    <contour>
      <point x="280" y="455" type="line"/>
      <point x="304" y="500" type="line"/>
      <point x="129" y="592" type="line"/>
      <point x="77" y="495" type="line"/>
    </contour>
    <contour>
      <point x="338" y="274" type="line"/>
      <point x="427" y="333" type="line"/>
      <point x="314" y="490" type="line"/>
      <point x="274" y="462" type="line"/>
    </contour>
    <contour>
      <point x="268" y="477" type="line"/>
      <point x="316" y="477" type="line"/>
      <point x="389" y="690" type="line"/>
      <point x="287" y="690" type="line"/>
    </contour>
    <contour>
      <point x="295" y="455" type="line"/>
      <point x="514" y="495" type="line"/>
      <point x="504" y="592" type="line"/>
      <point x="289" y="500" type="line"/>
    </contour>
  </outline>
</glyph>
<glyph name="zero" format="2">
  <advance width="611"/>
  <unicode hex="0030"/>
  <outline>
    <contour>
      <point x="247" y="-10" type="curve"/>
      <point x="436" y="-10"/>
      <point x="581" y="195"/>
      <point x="581" y="474" type="curve"/>
      <point x="581" y="614"/>
      <point x="492" y="700"/>
      <point x="367" y="700" type="curve"/>
      <point x="176" y="700"/>
      <point x="31" y="495"/>
      <point x="31" y="216" type="curve"/>
      <point x="31" y="76"/>
      <point x="120" y="-10"/>
    </contour>
    <contour>
      <point x="261" y="87" type="curve"/>
      <point x="189" y="87"/>
      <point x="140" y="129"/>
      <point x="140" y="230" type="curve"/>
      <point x="140" y="438"/>
      <point x="237" y="603"/>
      <point x="352" y="603" type="curve"/>
      <point x="423" y="603"/>
      <point x="472" y="561"/>
      <point x="472" y="460" type="curve"/>
      <point x="472" y="252"/>
      <point x="375" y="87"/>
    </contour>
  </outline>
</glyph>
<glyph name="one" format="2">
  <advance width="360"/>
  <unicode hex="0031"/>
  <outline>
    <contour>
      <point x="83" y="0" type="line"/>
      <point x="188" y="0" type="line"/>
      <point x="335" y="690" type="line"/>
      <point x="253" y="690" type="line"/>
      <point x="219" y="608"/>
      <point x="177" y="584"/>
      <point x="81" y="575" type="curve"/>
      <point x="66" y="499" type="line"/>
      <point x="189" y="499" type="line"/>
    </contour>
  </outline>
</glyph>
<glyph name="two" format="2">
  <advance width="571"/>
  <unicode hex="0032"/>
  <outline>
    <contour>
      <point x="106" y="52" type="line"/>
      <point x="367" y="255" type="line" smooth="yes"/>
      <point x="483" y="346"/>
      <point x="546" y="434"/>
      <point x="546" y="522" type="curve"/>
      <point x="546" y="614"/>
      <point x="468" y="700"/>
      <point x="340" y="700" type="curve"/>
      <point x="197" y="700"/>
      <point x="109" y="623"/>
      <point x="74" y="473" type="curve"/>
      <point x="172" y="453" type="line"/>
      <point x="192" y="557"/>
      <point x="247" y="608"/>
      <point x="328" y="608" type="curve"/>
      <point x="395" y="608"/>
      <point x="435" y="566"/>
      <point x="435" y="512" type="curve" smooth="yes"/>
      <point x="435" y="462"/>
      <point x="385" y="393"/>
      <point x="296" y="319" type="curve" smooth="yes"/>
      <point x="-10" y="67" type="line"/>
    </contour>
    <contour>
      <point x="-24" y="0" type="line"/>
      <point x="455" y="0" type="line"/>
      <point x="476" y="100" type="line"/>
      <point x="77" y="100" type="line"/>
      <point x="-10" y="67" type="line"/>
    </contour>
  </outline>
</glyph>
<glyph name="three" format="2">
  <advance width="572"/>
  <unicode hex="0033"/>
  <outline>
    <contour>
      <point x="234" y="-10" type="curve"/>
      <point x="399" y="-10"/>
      <point x="507" y="124"/>
      <point x="507" y="254" type="curve"/>
      <point x="507" y="362"/>
      <point x="428" y="428"/>
      <point x="340" y="428" type="curve"/>
      <point x="322" y="428"/>
      <point x="320" y="425"/>
      <point x="300" y="414" type="curve"/>
      <point x="288" y="381" type="line"/>
      <point x="573" y="623" type="line"/>
      <point x="453" y="638" type="line"/>
      <point x="206" y="417" type="line"/>
      <point x="192" y="352" type="line"/>
      <point x="269" y="352" type="line"/>
      <point x="357" y="352"/>
      <point x="396" y="311"/>
      <point x="396" y="240" type="curve"/>
      <point x="396" y="176"/>
      <point x="333" y="85"/>
      <point x="238" y="85" type="curve"/>
      <point x="142" y="85"/>
      <point x="110" y="157"/>
      <point x="115" y="224" type="curve"/>
      <point x="9" y="201" type="line"/>
      <point x="8" y="69"/>
      <point x="90" y="-10"/>
    </contour>
    <contour>
      <point x="107" y="590" type="line"/>
      <point x="486" y="590" type="line"/>
      <point x="573" y="623" type="line"/>
      <point x="588" y="690" type="line"/>
      <point x="129" y="690" type="line"/>
    </contour>
  </outline>
</glyph>
<glyph name="four" format="2">
  <advance width="561"/>
  <unicode hex="0034"/>
  <outline>
    <contour>
      <point x="-20" y="193" type="line"/>
      <point x="94" y="193" type="line"/>
      <point x="460" y="690" type="line"/>
      <point x="349" y="690" type="line"/>
    </contour>
    <contour>
      <point x="-31" y="141" type="line"/>
      <point x="504" y="141" type="line"/>
      <point x="524" y="237" type="line"/>
      <point x="29" y="237" type="line"/>
      <point x="-20" y="193" type="line"/>
    </contour>
    <contour>
      <point x="269" y="0" type="line"/>
      <point x="374" y="0" type="line"/>
      <point x="521" y="690" type="line"/>
      <point x="416" y="690" type="line"/>
    </contour>
  </outline>
</glyph>
<glyph name="five" format="2">
  <advance width="581"/>
  <unicode hex="0035"/>
  <outline>
    <contour>
      <point x="231" y="-10" type="curve"/>
      <point x="400" y="-10"/>
      <point x="514" y="120"/>
      <point x="514" y="269" type="curve"/>
      <point x="514" y="380"/>
      <point x="442" y="463"/>
      <point x="326" y="463" type="curve"/>
      <point x="240" y="463"/>
      <point x="173" y="416"/>
      <point x="134" y="338" type="curve"/>
      <point x="150" y="338" type="line"/>
      <point x="246" y="638" type="line"/>
      <point x="186" y="590" type="line"/>
      <point x="554" y="590" type="line"/>
      <point x="576" y="690" type="line"/>
      <point x="168" y="690" type="line"/>
      <point x="52" y="304" type="line"/>
      <point x="130" y="304" type="line"/>
      <point x="161" y="342"/>
      <point x="216" y="376"/>
      <point x="283" y="376" type="curve"/>
      <point x="361" y="376"/>
      <point x="402" y="325"/>
      <point x="402" y="257" type="curve"/>
      <point x="402" y="164"/>
      <point x="338" y="85"/>
      <point x="244" y="85" type="curve"/>
      <point x="170" y="85"/>
      <point x="115" y="123"/>
      <point x="115" y="204" type="curve"/>
      <point x="10" y="181" type="line"/>
      <point x="12" y="63"/>
      <point x="109" y="-10"/>
    </contour>
  </outline>
</glyph>
<glyph name="seven" format="2">
  <advance width="534"/>
  <unicode hex="0037"/>
  <outline>
    <contour>
      <point x="100" y="0" type="curve"/>
      <point x="219" y="0" type="line"/>
      <point x="252" y="216"/>
      <point x="354" y="419"/>
      <point x="573" y="638" type="curve"/>
      <point x="446" y="638" type="line"/>
      <point x="252" y="426"/>
      <point x="142" y="212"/>
    </contour>
    <contour>
      <point x="72" y="590" type="line"/>
      <point x="492" y="590" type="line"/>
      <point x="573" y="638" type="line"/>
      <point x="584" y="690" type="line"/>
      <point x="94" y="690" type="line"/>
    </contour>
  </outline>
</glyph>
<glyph name="eight" format="2">
  <advance width="568"/>
  <unicode hex="0038"/>
  <outline>
    <contour>
      <point x="222" y="-10" type="curve"/>
      <point x="395" y="-10"/>
      <point x="505" y="88"/>
      <point x="505" y="215" type="curve"/>
      <point x="505" y="309"/>
      <point x="428" y="385"/>
      <point x="293" y="385" type="curve" smooth="yes"/>
      <point x="122" y="385"/>
      <point x="-1" y="282"/>
      <point x="-1" y="167" type="curve"/>
      <point x="-1" y="70"/>
      <point x="84" y="-10"/>
    </contour>
    <contour>
      <point x="237" y="81" type="curve"/>
      <point x="155" y="81"/>
      <point x="107" y="124"/>
      <point x="107" y="180" type="curve"/>
      <point x="107" y="254"/>
      <point x="169" y="319"/>
      <point x="279" y="319" type="curve" smooth="yes"/>
      <point x="359" y="319"/>
      <point x="400" y="275"/>
      <point x="400" y="213" type="curve"/>
      <point x="400" y="146"/>
      <point x="358" y="81"/>
    </contour>
    <contour>
      <point x="285" y="350" type="curve" smooth="yes"/>
      <point x="444" y="350"/>
      <point x="558" y="438"/>
      <point x="558" y="540" type="curve"/>
      <point x="558" y="630"/>
      <point x="480" y="700"/>
      <point x="351" y="700" type="curve"/>
      <point x="202" y="700"/>
      <point x="85" y="610"/>
      <point x="85" y="499" type="curve" smooth="yes"/>
      <point x="85" y="417"/>
      <point x="160" y="350"/>
    </contour>
    <contour>
      <point x="298" y="407" type="curve" smooth="yes"/>
      <point x="228" y="407"/>
      <point x="190" y="444"/>
      <point x="190" y="493" type="curve" smooth="yes"/>
      <point x="190" y="558"/>
      <point x="244" y="609"/>
      <point x="335" y="609" type="curve" smooth="yes"/>
      <point x="407" y="609"/>
      <point x="451" y="574"/>
      <point x="451" y="522" type="curve"/>
      <point x="451" y="458"/>
      <point x="386" y="407"/>
    </contour>
  </outline>
</glyph>
<glyph name="colon" format="2">
  <advance width="220"/>
  <unicode hex="003A"/>
  <outline>
    <contour>
      <point x="132" y="407" type="curve"/>
      <point x="173" y="407"/>
      <point x="203" y="436"/>
      <point x="203" y="478" type="curve"/>
      <point x="203" y="515"/>
      <point x="178" y="540"/>
      <point x="141" y="540" type="curve"/>
      <point x="100" y="540"/>
      <point x="71" y="511"/>
      <point x="71" y="467" type="curve"/>
      <point x="71" y="432"/>
      <point x="96" y="407"/>
    </contour>
    <contour>
      <point x="44" y="-10" type="curve"/>
      <point x="85" y="-10"/>
      <point x="115" y="19"/>
      <point x="115" y="61" type="curve"/>
      <point x="115" y="98"/>
      <point x="90" y="123"/>
      <point x="53" y="123" type="curve"/>
      <point x="12" y="123"/>
      <point x="-17" y="94"/>
      <point x="-17" y="50" type="curve"/>
      <point x="-17" y="15"/>
      <point x="8" y="-10"/>
    </contour>
  </outline>
</glyph>
<glyph name="semicolon" format="2">
  <advance width="219"/>
  <unicode hex="003B"/>
  <outline>
    <contour>
      <point x="-53" y="-160" type="line"/>
      <point x="17" y="-160" type="line"/>
      <point x="119" y="113" type="line"/>
      <point x="5" y="113" type="line"/>
    </contour>
    <contour>
      <point x="133" y="407" type="curve"/>
      <point x="174" y="407"/>
      <point x="204" y="436"/>
      <point x="204" y="478" type="curve"/>
      <point x="204" y="515"/>
      <point x="179" y="540"/>
      <point x="142" y="540" type="curve"/>
      <point x="101" y="540"/>
      <point x="72" y="511"/>
      <point x="72" y="467" type="curve"/>
      <point x="72" y="432"/>
      <point x="97" y="407"/>
    </contour>
  </outline>
</glyph>
<glyph name="less" format="2">
  <advance width="532"/>
  <unicode hex="003C"/>
  <outline>
    <contour>
      <point x="415" y="93" type="line"/>
      <point x="433" y="179" type="line"/>
      <point x="152" y="298" type="line"/>
      <point x="484" y="417" type="line"/>
      <point x="504" y="513" type="line"/>
      <point x="55" y="345" type="line"/>
      <point x="37" y="261" type="line"/>
    </contour>
  </outline>
</glyph>
<glyph name="greater" format="2">
  <advance width="532"/>
  <unicode hex="003E"/>
  <outline>
    <contour>
      <point x="12" y="93" type="line"/>
      <point x="460" y="261" type="line"/>
      <point x="478" y="345" type="line"/>
      <point x="101" y="513" type="line"/>
      <point x="83" y="427" type="line"/>
      <point x="364" y="308" type="line"/>
      <point x="32" y="189" type="line"/>
    </contour>
  </outline>
</glyph>
<glyph name="question" format="2">
  <advance width="558"/>
  <unicode hex="003F"/>
  <outline>
    <contour>
      <point x="203" y="262" type="curve" smooth="yes"/>
      <point x="197" y="227" type="line"/>
      <point x="288" y="227" type="line"/>
      <point x="294" y="255" type="line" smooth="yes"/>
      <point x="318" y="369"/>
      <point x="553" y="341"/>
      <point x="553" y="532" type="curve"/>
      <point x="553" y="641"/>
      <point x="472" y="700"/>
      <point x="345" y="700" type="curve"/>
      <point x="205" y="700"/>
      <point x="120" y="631"/>
      <point x="81" y="514" type="curve"/>
      <point x="174" y="479" type="line"/>
      <point x="199" y="566"/>
      <point x="252" y="607"/>
      <point x="340" y="607" type="curve"/>
      <point x="408" y="607"/>
      <point x="443" y="577"/>
      <point x="443" y="526" type="curve"/>
      <point x="443" y="415"/>
      <point x="233" y="438"/>
    </contour>
    <contour>
      <point x="203" y="-10" type="curve"/>
      <point x="244" y="-10"/>
      <point x="274" y="19"/>
      <point x="274" y="61" type="curve"/>
      <point x="274" y="98"/>
      <point x="249" y="123"/>
      <point x="212" y="123" type="curve"/>
      <point x="171" y="123"/>
      <point x="142" y="94"/>
      <point x="142" y="50" type="curve"/>
      <point x="142" y="15"/>
      <point x="167" y="-10"/>
    </contour>
  </outline>
</glyph>
<glyph name="at" format="2">
  <advance width="894"/>
  <unicode hex="0040"/>
  <outline>
    <contour>
      <point x="326" y="-149" type="curve" smooth="yes"/>
      <point x="400" y="-149"/>
      <point x="459" y="-136"/>
      <point x="521" y="-109" type="curve"/>
      <point x="493" y="-35" type="line"/>
      <point x="443" y="-58"/>
      <point x="400" y="-69"/>
      <point x="333" y="-69" type="curve" smooth="yes"/>
      <point x="202" y="-69"/>
      <point x="109" y="30"/>
      <point x="109" y="200" type="curve" smooth="yes"/>
      <point x="109" y="428"/>
      <point x="270" y="620"/>
      <point x="507" y="620" type="curve" smooth="yes"/>
      <point x="655" y="620"/>
      <point x="755" y="522"/>
      <point x="755" y="350" type="curve" smooth="yes"/>
      <point x="755" y="195"/>
      <point x="680" y="70"/>
      <point x="631" y="70" type="curve" smooth="yes"/>
      <point x="595" y="70"/>
      <point x="603" y="130"/>
      <point x="609" y="157" type="curve" smooth="yes"/>
      <point x="680" y="490" type="line"/>
      <point x="580" y="490" type="line"/>
      <point x="567" y="427" type="line"/>
      <point x="548" y="474"/>
      <point x="504" y="500"/>
      <point x="445" y="500" type="curve" smooth="yes"/>
      <point x="318" y="500"/>
      <point x="207" y="372"/>
      <point x="207" y="201" type="curve" smooth="yes"/>
      <point x="207" y="100"/>
      <point x="260" y="30"/>
      <point x="349" y="30" type="curve" smooth="yes"/>
      <point x="411" y="30"/>
      <point x="465" y="58"/>
      <point x="503" y="109" type="curve"/>
      <point x="503" y="19"/>
      <point x="554" y="-10"/>
      <point x="615" y="-10" type="curve" smooth="yes"/>
      <point x="746" y="-10"/>
      <point x="846" y="150"/>
      <point x="846" y="357" type="curve" smooth="yes"/>
      <point x="846" y="572"/>
      <point x="708" y="700"/>
      <point x="514" y="700" type="curve" smooth="yes"/>
      <point x="220" y="700"/>
      <point x="19" y="470"/>
      <point x="19" y="192" type="curve" smooth="yes"/>
      <point x="19" y="-15"/>
      <point x="149" y="-149"/>
    </contour>
    <contour>
      <point x="396" y="118" type="curve" smooth="yes"/>
      <point x="344" y="118"/>
      <point x="311" y="146"/>
      <point x="311" y="215" type="curve" smooth="yes"/>
      <point x="311" y="335"/>
      <point x="380" y="412"/>
      <point x="459" y="412" type="curve" smooth="yes"/>
      <point x="511" y="412"/>
      <point x="544" y="384"/>
      <point x="544" y="320" type="curve" smooth="yes"/>
      <point x="544" y="214"/>
      <point x="474" y="118"/>
    </contour>
  </outline>
</glyph>
<glyph name="A" format="2">
  <advance width="660"/>
  <unicode hex="0041"/>
  <anchor x="274" y="0" name="bottom"/>
  <anchor x="572" y="0" name="ogonek"/>
  <anchor x="406" y="690" name="top"/>
  <outline>
    <contour>
      <point x="-58" y="0" type="line"/>
      <point x="57" y="0" type="line"/>
      <point x="160" y="191" type="line"/>
      <point x="444" y="191" type="line"/>
      <point x="467" y="0" type="line"/>
      <point x="572" y="0" type="line"/>
      <point x="481" y="690" type="line"/>
      <point x="327" y="690" type="line"/>
    </contour>
    <contour>
      <point x="212" y="287" type="line"/>
      <point x="391" y="620" type="line"/>
      <point x="432" y="287" type="line"/>
    </contour>
  </outline>
</glyph>
<glyph name="B" format="2">
  <advance width="623"/>
  <unicode hex="0042"/>
  <outline>
    <contour>
      <point x="2" y="0" type="line"/>
      <point x="283" y="0" type="line" smooth="yes"/>
      <point x="457" y="0"/>
      <point x="559" y="96"/>
      <point x="559" y="230" type="curve" smooth="yes"/>
      <point x="559" y="293"/>
      <point x="522" y="341"/>
      <point x="464" y="364" type="curve"/>
      <point x="551" y="393"/>
      <point x="598" y="452"/>
      <point x="598" y="530" type="curve" smooth="yes"/>
      <point x="598" y="629"/>
      <point x="519" y="690"/>
      <point x="409" y="690" type="curve" smooth="yes"/>
      <point x="149" y="690" type="line"/>
    </contour>
    <contour>
      <point x="275" y="93" type="curve" smooth="yes"/>
      <point x="127" y="93" type="line"/>
      <point x="174" y="313" type="line"/>
      <point x="334" y="313" type="line" smooth="yes"/>
      <point x="413" y="313"/>
      <point x="453" y="285"/>
      <point x="453" y="232" type="curve" smooth="yes"/>
      <point x="453" y="159"/>
      <point x="399" y="93"/>
    </contour>
    <contour>
      <point x="327" y="399" type="curve" smooth="yes"/>
      <point x="192" y="399" type="line"/>
      <point x="234" y="597" type="line"/>
      <point x="386" y="597" type="line" smooth="yes"/>
      <point x="459" y="597"/>
      <point x="495" y="567"/>
      <point x="495" y="518" type="curve" smooth="yes"/>
      <point x="495" y="454"/>
      <point x="444" y="399"/>
    </contour>
  </outline>
</glyph>
<glyph name="D" format="2">
  <advance width="678"/>
  <unicode hex="0044"/>
  <anchor x="401.664" y="690" name="top"/>
  <outline>
    <contour>
      <point x="52" y="0" type="line"/>
      <point x="236" y="0" type="line" smooth="yes"/>
      <point x="488" y="0"/>
      <point x="642" y="196"/>
      <point x="642" y="441" type="curve" smooth="yes"/>
      <point x="642" y="588"/>
      <point x="539" y="690"/>
      <point x="375" y="690" type="curve" smooth="yes"/>
      <point x="199" y="690" type="line"/>
      <point x="178" y="594" type="line"/>
      <point x="352" y="594" type="line" smooth="yes"/>
      <point x="487" y="594"/>
      <point x="534" y="537"/>
      <point x="534" y="434" type="curve" smooth="yes"/>
      <point x="534" y="249"/>
      <point x="426" y="96"/>
      <point x="246" y="96" type="curve" smooth="yes"/>
      <point x="72" y="96" type="line"/>
    </contour>
    <contour>
      <point x="2" y="0" type="line"/>
      <point x="107" y="0" type="line"/>
      <point x="254" y="690" type="line"/>
      <point x="149" y="690" type="line"/>
    </contour>
  </outline>
</glyph>
<glyph name="E" format="2">
  <advance width="611"/>
  <unicode hex="0045"/>
  <anchor x="252" y="0" name="bottom"/>
  <anchor x="492" y="0" name="ogonek"/>
  <anchor x="398.664" y="690" name="top"/>
  <outline>
    <contour>
      <point x="2" y="0" type="line"/>
      <point x="107" y="0" type="line"/>
      <point x="254" y="690" type="line"/>
      <point x="149" y="690" type="line"/>
    </contour>
    <contour>
      <point x="52" y="0" type="line"/>
      <point x="492" y="0" type="line"/>
      <point x="512" y="96" type="line"/>
      <point x="72" y="96" type="line"/>
    </contour>
    <contour>
      <point x="117" y="306" type="line"/>
      <point x="492" y="306" type="line"/>
      <point x="512" y="402" type="line"/>
      <point x="137" y="402" type="line"/>
    </contour>
    <contour>
      <point x="178" y="594" type="line"/>
      <point x="613" y="594" type="line"/>
      <point x="634" y="690" type="line"/>
      <point x="199" y="690" type="line"/>
    </contour>
  </outline>
</glyph>
<glyph name="F" format="2">
  <advance width="575"/>
  <unicode hex="0046"/>
  <outline>
    <contour>
      <point x="2" y="0" type="line"/>
      <point x="107" y="0" type="line"/>
      <point x="254" y="690" type="line"/>
      <point x="149" y="690" type="line"/>
    </contour>
    <contour>
      <point x="113" y="286" type="line"/>
      <point x="488" y="286" type="line"/>
      <point x="508" y="382" type="line"/>
      <point x="133" y="382" type="line"/>
    </contour>
    <contour>
      <point x="178" y="594" type="line"/>
      <point x="593" y="594" type="line"/>
      <point x="614" y="690" type="line"/>
      <point x="199" y="690" type="line"/>
    </contour>
  </outline>
</glyph>
<glyph name="H" format="2">
  <advance width="704"/>
  <unicode hex="0048"/>
  <anchor x="296" y="0" name="bottom"/>
  <anchor x="406" y="518" name="center"/>
  <anchor x="442" y="690" name="top"/>
  <anchor x="110" y="690" name="topleft"/>
  <outline>
    <contour>
      <point x="2" y="0" type="line"/>
      <point x="107" y="0" type="line"/>
      <point x="172" y="306" type="line"/>
      <point x="517" y="306" type="line"/>
      <point x="452" y="0" type="line"/>
      <point x="557" y="0" type="line"/>
      <point x="704" y="690" type="line"/>
      <point x="599" y="690" type="line"/>
      <point x="538" y="402" type="line"/>
      <point x="193" y="402" type="line"/>
      <point x="254" y="690" type="line"/>
      <point x="149" y="690" type="line"/>
    </contour>
  </outline>
</glyph>
<glyph name="I" format="2">
  <advance width="254"/>
  <unicode hex="0049"/>
  <anchor x="55" y="0" name="bottom"/>
  <anchor x="107" y="0" name="ogonek"/>
  <anchor x="201.664" y="690" name="top"/>
  <outline>
    <contour>
      <point x="2" y="0" type="line"/>
      <point x="107" y="0" type="line"/>
      <point x="254" y="690" type="line"/>
      <point x="149" y="690" type="line"/>
    </contour>
  </outline>
</glyph>
<glyph name="J" format="2">
  <advance width="551"/>
  <unicode hex="004A"/>
  <anchor x="501.803" y="690" name="top"/>
  <outline>
    <contour>
      <point x="193" y="-10" type="curve"/>
      <point x="331" y="-10"/>
      <point x="424" y="74"/>
      <point x="459" y="237" type="curve" smooth="yes"/>
      <point x="556" y="690" type="line"/>
      <point x="451" y="690" type="line"/>
      <point x="356" y="244" type="line" smooth="yes"/>
      <point x="333" y="138"/>
      <point x="283" y="87"/>
      <point x="201" y="87" type="curve"/>
      <point x="123" y="87"/>
      <point x="85" y="136"/>
      <point x="92" y="226" type="curve"/>
      <point x="-7" y="214" type="line"/>
      <point x="-11" y="67"/>
      <point x="72" y="-10"/>
    </contour>
  </outline>
</glyph>
<glyph name="K" format="2">
  <advance width="641"/>
  <unicode hex="004B"/>
  <anchor x="264" y="0" name="bottom"/>
  <anchor x="410.664" y="690" name="top"/>
  <outline>
    <contour>
      <point x="116" y="171" type="line"/>
      <point x="683" y="690" type="line"/>
      <point x="546" y="690" type="line"/>
      <point x="148" y="320" type="line"/>
    </contour>
    <contour>
      <point x="2" y="0" type="line"/>
      <point x="107" y="0" type="line"/>
      <point x="254" y="690" type="line"/>
      <point x="149" y="690" type="line"/>
    </contour>
    <contour>
      <point x="439" y="0" type="line"/>
      <point x="555" y="0" type="line"/>
      <point x="351" y="403" type="line"/>
      <point x="277" y="334" type="line"/>
    </contour>
  </outline>
</glyph>
<glyph name="L" format="2">
  <advance width="539"/>
  <unicode hex="004C"/>
  <anchor x="214" y="0" name="bottom"/>
  <anchor x="123" y="345" name="center"/>
  <anchor x="196" y="690" name="top"/>
  <anchor x="392" y="690" name="topright"/>
  <outline>
    <contour>
      <point x="2" y="0" type="line"/>
      <point x="107" y="0" type="line"/>
      <point x="254" y="690" type="line"/>
      <point x="149" y="690" type="line"/>
    </contour>
    <contour>
      <point x="52" y="0" type="line"/>
      <point x="437" y="0" type="line"/>
      <point x="457" y="96" type="line"/>
      <point x="72" y="96" type="line"/>
    </contour>
  </outline>
</glyph>
<glyph name="M" format="2">
  <advance width="861"/>
  <unicode hex="004D"/>
  <outline>
    <contour>
      <point x="2" y="0" type="line"/>
      <point x="102" y="0" type="line"/>
      <point x="226" y="581" type="line"/>
      <point x="294" y="0" type="line"/>
      <point x="429" y="0" type="line"/>
      <point x="734" y="586" type="line"/>
      <point x="609" y="0" type="line"/>
      <point x="714" y="0" type="line"/>
      <point x="861" y="690" type="line"/>
      <point x="684" y="690" type="line"/>
      <point x="381" y="98" type="line"/>
      <point x="311" y="690" type="line"/>
      <point x="149" y="690" type="line"/>
    </contour>
  </outline>
</glyph>
<glyph name="N" format="2">
  <advance width="701"/>
  <unicode hex="004E"/>
  <anchor x="282" y="0" name="bottom"/>
  <anchor x="428.664" y="690" name="top"/>
  <outline>
    <contour>
      <point x="419" y="0" type="line"/>
      <point x="523" y="0" type="line"/>
      <point x="284" y="690" type="line"/>
      <point x="180" y="690" type="line"/>
    </contour>
    <contour>
      <point x="2" y="0" type="line"/>
      <point x="102" y="0" type="line"/>
      <point x="249" y="690" type="line"/>
      <point x="149" y="690" type="line"/>
    </contour>
    <contour>
      <point x="454" y="0" type="line"/>
      <point x="554" y="0" type="line"/>
      <point x="701" y="690" type="line"/>
      <point x="601" y="690" type="line"/>
    </contour>
  </outline>
</glyph>
<glyph name="P" format="2">
  <advance width="612"/>
  <unicode hex="0050"/>
  <outline>
    <contour>
      <point x="103" y="240" type="line"/>
      <point x="300" y="240" type="line"/>
      <point x="496" y="240"/>
      <point x="611" y="348"/>
      <point x="611" y="500" type="curve"/>
      <point x="611" y="617"/>
      <point x="519" y="690"/>
      <point x="395" y="690" type="curve"/>
      <point x="199" y="690" type="line"/>
      <point x="178" y="594" type="line"/>
      <point x="371" y="594" type="line"/>
      <point x="460" y="594"/>
      <point x="504" y="559"/>
      <point x="504" y="493" type="curve"/>
      <point x="504" y="410"/>
      <point x="446" y="336"/>
      <point x="312" y="336" type="curve"/>
      <point x="123" y="336" type="line"/>
    </contour>
    <contour>
      <point x="2" y="0" type="line"/>
      <point x="107" y="0" type="line"/>
      <point x="254" y="690" type="line"/>
      <point x="149" y="690" type="line"/>
    </contour>
  </outline>
</glyph>
<glyph name="T" format="2">
  <advance width="580"/>
  <unicode hex="0054"/>
  <anchor x="218" y="0" name="bottom"/>
  <anchor x="364.664" y="690" name="top"/>
  <outline>
    <contour>
      <point x="165" y="0" type="line"/>
      <point x="270" y="0" type="line"/>
      <point x="417" y="690" type="line"/>
      <point x="312" y="690" type="line"/>
    </contour>
    <contour>
      <point x="71" y="594" type="line"/>
      <point x="616" y="594" type="line"/>
      <point x="637" y="690" type="line"/>
      <point x="92" y="690" type="line"/>
    </contour>
  </outline>
</glyph>
<glyph name="W" format="2">
  <advance width="921"/>
  <unicode hex="0057"/>
  <anchor x="405" y="0" name="bottom"/>
  <anchor x="551" y="690" name="top"/>
  <outline>
    <contour>
      <point x="98" y="0" type="line"/>
      <point x="259" y="0" type="line"/>
      <point x="517" y="602" type="line"/>
      <point x="520" y="0" type="line"/>
      <point x="679" y="0" type="line"/>
      <point x="978" y="690" type="line"/>
      <point x="870" y="690" type="line"/>
      <point x="615" y="84" type="line"/>
      <point x="611" y="690" type="line"/>
      <point x="456" y="690" type="line"/>
      <point x="195" y="84" type="line"/>
      <point x="197" y="690" type="line"/>
      <point x="93" y="690" type="line"/>
    </contour>
  </outline>
</glyph>
<glyph name="X" format="2">
  <advance width="610"/>
  <unicode hex="0058"/>
  <outline>
    <contour>
      <point x="-60" y="0" type="line"/>
      <point x="71" y="0" type="line"/>
      <point x="304" y="286" type="line"/>
      <point x="351" y="334" type="line"/>
      <point x="661" y="690" type="line"/>
      <point x="530" y="690" type="line"/>
      <point x="311" y="423" type="line"/>
      <point x="263" y="374" type="line"/>
    </contour>
    <contour>
      <point x="412" y="0" type="line"/>
      <point x="524" y="0" type="line"/>
      <point x="209" y="690" type="line"/>
      <point x="97" y="690" type="line"/>
    </contour>
  </outline>
</glyph>
<glyph name="Z" format="2">
  <advance width="618"/>
  <unicode hex="005A"/>
  <anchor x="253" y="0" name="bottom"/>
  <anchor x="326" y="345" name="center"/>
  <anchor x="399" y="690" name="top"/>
  <outline>
    <contour>
      <point x="-28" y="52" type="line"/>
      <point x="108" y="52" type="line"/>
      <point x="635" y="638" type="line"/>
      <point x="499" y="638" type="line"/>
    </contour>
    <contour>
      <point x="-39" y="0" type="line"/>
      <point x="511" y="0" type="line"/>
      <point x="531" y="96" type="line"/>
      <point x="21" y="96" type="line"/>
      <point x="-28" y="52" type="line"/>
    </contour>
    <contour>
      <point x="102" y="594" type="line"/>
      <point x="585" y="594" type="line"/>
      <point x="635" y="638" type="line"/>
      <point x="646" y="690" type="line"/>
      <point x="123" y="690" type="line"/>
    </contour>
  </outline>
</glyph>
<glyph name="bracketleft" format="2">
  <advance width="309"/>
  <unicode hex="005B"/>
  <outline>
    <contour>
      <point x="-20" y="-120" type="line"/>
      <point x="70" y="-120" type="line"/>
      <point x="260" y="770" type="line"/>
      <point x="170" y="770" type="line"/>
    </contour>
    <contour>
      <point x="10" y="-120" type="line"/>
      <point x="216" y="-120" type="line"/>
      <point x="233" y="-40" type="line"/>
      <point x="27" y="-40" type="line"/>
    </contour>
    <contour>
      <point x="183" y="690" type="line"/>
      <point x="389" y="690" type="line"/>
      <point x="406" y="770" type="line"/>
      <point x="200" y="770" type="line"/>
    </contour>
  </outline>
</glyph>
<glyph name="backslash" format="2">
  <advance width="289"/>
  <unicode hex="005C"/>
  <outline>
    <contour>
      <point x="102" y="-120" type="line"/>
      <point x="190" y="-120" type="line"/>
      <point x="180" y="770" type="line"/>
      <point x="92" y="770" type="line"/>
    </contour>
  </outline>
</glyph>
<glyph name="bracketright" format="2">
  <advance width="310"/>
  <unicode hex="005D"/>
  <outline>
    <contour>
      <point x="42" y="-120" type="line"/>
      <point x="132" y="-120" type="line"/>
      <point x="322" y="770" type="line"/>
      <point x="232" y="770" type="line"/>
    </contour>
    <contour>
      <point x="-104" y="-120" type="line"/>
      <point x="102" y="-120" type="line"/>
      <point x="119" y="-40" type="line"/>
      <point x="-87" y="-40" type="line"/>
    </contour>
    <contour>
      <point x="69" y="690" type="line"/>
      <point x="275" y="690" type="line"/>
      <point x="292" y="770" type="line"/>
      <point x="86" y="770" type="line"/>
    </contour>
  </outline>
</glyph>
<glyph name="asciicircum" format="2">
  <advance width="479"/>
  <unicode hex="005E"/>
  <outline>
    <contour>
      <point x="352" y="277" type="line"/>
      <point x="436" y="277" type="line"/>
      <point x="356" y="690" type="line"/>
      <point x="272" y="690" type="line"/>
      <point x="16" y="278" type="line"/>
      <point x="113" y="278" type="line"/>
      <point x="298" y="586" type="line"/>
    </contour>
  </outline>
</glyph>
<glyph name="underscore" format="2">
  <advance width="434"/>
  <unicode hex="005F"/>
  <outline>
    <contour>
      <point x="-91" y="-85" type="line"/>
      <point x="344" y="-85" type="line"/>
      <point x="362" y="0" type="line"/>
      <point x="-73" y="0" type="line"/>
    </contour>
  </outline>
</glyph>
<glyph name="c" format="2">
  <advance width="522"/>
  <unicode hex="0063"/>
  <anchor x="203" y="0" name="bottom"/>
  <anchor x="315.655" y="530" name="top"/>
  <outline>
    <contour>
      <point x="213" y="-10" type="curve"/>
      <point x="313" y="-10"/>
      <point x="394" y="40"/>
      <point x="447" y="145" type="curve"/>
      <point x="353" y="179" type="line"/>
      <point x="319" y="109"/>
      <point x="277" y="80"/>
      <point x="226" y="80" type="curve"/>
      <point x="160" y="80"/>
      <point x="120" y="121"/>
      <point x="120" y="195" type="curve" smooth="yes"/>
      <point x="120" y="334"/>
      <point x="200" y="450"/>
      <point x="300" y="450" type="curve"/>
      <point x="357" y="450"/>
      <point x="387" y="422"/>
      <point x="400" y="355" type="curve"/>
      <point x="498" y="384" type="line"/>
      <point x="480" y="486"/>
      <point x="410" y="540"/>
      <point x="314" y="540" type="curve"/>
      <point x="145" y="540"/>
      <point x="16" y="385"/>
      <point x="16" y="190" type="curve" smooth="yes"/>
      <point x="16" y="71"/>
      <point x="94" y="-10"/>
    </contour>
  </outline>
</glyph>
<glyph name="d" format="2">
  <advance width="576"/>
  <unicode hex="0064"/>
  <anchor x="232" y="0" name="bottom"/>
  <anchor x="497" y="572" name="center"/>
  <anchor x="344" y="530" name="top"/>
  <anchor x="619" y="715" name="topright"/>
  <outline>
    <contour>
      <point x="186" y="-10" type="curve"/>
      <point x="292" y="-10"/>
      <point x="383" y="74"/>
      <point x="414" y="221" type="curve"/>
      <point x="441" y="380" type="line"/>
      <point x="441" y="483"/>
      <point x="378" y="540"/>
      <point x="289" y="540" type="curve"/>
      <point x="140" y="540"/>
      <point x="17" y="392"/>
      <point x="17" y="188" type="curve"/>
      <point x="17" y="64"/>
      <point x="89" y="-10"/>
    </contour>
    <contour>
      <point x="226" y="77" type="curve"/>
      <point x="161" y="77"/>
      <point x="122" y="113"/>
      <point x="122" y="195" type="curve"/>
      <point x="122" y="343"/>
      <point x="198" y="453"/>
      <point x="305" y="453" type="curve"/>
      <point x="370" y="453"/>
      <point x="409" y="417"/>
      <point x="409" y="335" type="curve"/>
      <point x="409" y="196"/>
      <point x="333" y="77"/>
    </contour>
    <contour>
      <point x="339" y="0" type="line"/>
      <point x="439" y="0" type="line"/>
      <point x="591" y="715" type="line"/>
      <point x="491" y="715" type="line"/>
      <point x="426" y="407" type="line"/>
      <point x="411" y="265" type="line"/>
      <point x="365" y="122" type="line"/>
    </contour>
  </outline>
</glyph>
<glyph name="e" format="2">
  <advance width="553"/>
  <unicode hex="0065"/>
  <anchor x="209" y="0" name="bottom"/>
  <anchor x="288" y="0" name="ogonek"/>
  <anchor x="321.655" y="530" name="top"/>
  <outline>
    <contour>
      <point x="218" y="-10" type="curve"/>
      <point x="319" y="-10"/>
      <point x="404" y="43"/>
      <point x="455" y="125" type="curve"/>
      <point x="370" y="170" type="line"/>
      <point x="337" y="116"/>
      <point x="287" y="84"/>
      <point x="231" y="84" type="curve"/>
      <point x="159" y="84"/>
      <point x="119" y="121"/>
      <point x="119" y="195" type="curve" smooth="yes"/>
      <point x="119" y="337"/>
      <point x="199" y="454"/>
      <point x="296" y="454" type="curve"/>
      <point x="365" y="454"/>
      <point x="402" y="412"/>
      <point x="402" y="335" type="curve" smooth="yes"/>
      <point x="402" y="311"/>
      <point x="400" y="288"/>
      <point x="395" y="266" type="curve"/>
      <point x="433" y="310" type="line"/>
      <point x="115" y="310" type="line"/>
      <point x="98" y="231" type="line"/>
      <point x="490" y="231" type="line"/>
      <point x="499" y="265"/>
      <point x="506" y="302"/>
      <point x="506" y="340" type="curve" smooth="yes"/>
      <point x="506" y="459"/>
      <point x="430" y="540"/>
      <point x="308" y="540" type="curve"/>
      <point x="142" y="540"/>
      <point x="15" y="385"/>
      <point x="15" y="190" type="curve" smooth="yes"/>
      <point x="15" y="71"/>
      <point x="93" y="-10"/>
    </contour>
  </outline>
</glyph>
<glyph name="g" format="2">
  <advance width="575"/>
  <unicode hex="0067"/>
  <anchor x="323.655" y="530" name="top"/>
  <outline>
    <contour>
      <point x="175" y="-185" type="curve"/>
      <point x="299" y="-185"/>
      <point x="410" y="-131"/>
      <point x="445" y="34" type="curve" smooth="yes"/>
      <point x="551" y="530" type="line"/>
      <point x="451" y="530" type="line"/>
      <point x="425" y="407" type="line"/>
      <point x="410" y="265" type="line"/>
      <point x="374" y="168" type="line"/>
      <point x="349" y="53" type="line" smooth="yes"/>
      <point x="325" y="-57"/>
      <point x="249" y="-95"/>
      <point x="187" y="-95" type="curve"/>
      <point x="129" y="-95"/>
      <point x="92" y="-73"/>
      <point x="71" y="-23" type="curve"/>
      <point x="-31" y="-62" type="line"/>
      <point x="-9" y="-136"/>
      <point x="68" y="-185"/>
    </contour>
    <contour>
      <point x="191" y="40" type="curve"/>
      <point x="289" y="40"/>
      <point x="383" y="111"/>
      <point x="413" y="236" type="curve"/>
      <point x="440" y="380" type="line"/>
      <point x="440" y="483"/>
      <point x="377" y="540"/>
      <point x="288" y="540" type="curve"/>
      <point x="139" y="540"/>
      <point x="21" y="405"/>
      <point x="21" y="221" type="curve"/>
      <point x="21" y="115"/>
      <point x="94" y="40"/>
    </contour>
    <contour>
      <point x="231" y="127" type="curve"/>
      <point x="166" y="127"/>
      <point x="126" y="165"/>
      <point x="126" y="228" type="curve"/>
      <point x="126" y="356"/>
      <point x="197" y="453"/>
      <point x="304" y="453" type="curve"/>
      <point x="367" y="453"/>
      <point x="409" y="418"/>
      <point x="407" y="345" type="curve"/>
      <point x="407" y="226"/>
      <point x="329" y="127"/>
    </contour>
  </outline>
</glyph>
<glyph name="i" format="2">
  <advance width="229"/>
  <unicode hex="0069"/>
  <anchor x="43" y="0" name="bottom"/>
  <anchor x="92" y="0" name="ogonek"/>
  <outline>
    <contour>
      <point x="180" y="602" type="curve" smooth="yes"/>
      <point x="218" y="602"/>
      <point x="245" y="629"/>
      <point x="245" y="668" type="curve" smooth="yes"/>
      <point x="245" y="702"/>
      <point x="222" y="725"/>
      <point x="188" y="725" type="curve" smooth="yes"/>
      <point x="150" y="725"/>
      <point x="123" y="698"/>
      <point x="123" y="658" type="curve" smooth="yes"/>
      <point x="123" y="625"/>
      <point x="146" y="602"/>
    </contour>
    <component base="dotlessi"/>
  </outline>
</glyph>
<glyph name="l" format="2">
  <advance width="229"/>
  <unicode hex="006C"/>
  <anchor x="40" y="0" name="bottom"/>
  <anchor x="96" y="265" name="center"/>
  <anchor x="192" y="715" name="top"/>
  <anchor x="279" y="715" name="topright"/>
  <outline>
    <contour>
      <point x="-8" y="0" type="line"/>
      <point x="92" y="0" type="line"/>
      <point x="244" y="715" type="line"/>
      <point x="144" y="715" type="line"/>
    </contour>
  </outline>
</glyph>
<glyph name="o" format="2">
  <advance width="564"/>
  <unicode hex="006F"/>
  <anchor x="210" y="0" name="bottom"/>
  <anchor x="285" y="0" name="ogonek"/>
  <anchor x="323" y="530" name="top"/>
  <outline>
    <contour>
      <point x="219" y="-10" type="curve"/>
      <point x="388" y="-10"/>
      <point x="517" y="145"/>
      <point x="517" y="340" type="curve" smooth="yes"/>
      <point x="517" y="459"/>
      <point x="439" y="540"/>
      <point x="314" y="540" type="curve"/>
      <point x="145" y="540"/>
      <point x="16" y="385"/>
      <point x="16" y="190" type="curve" smooth="yes"/>
      <point x="16" y="71"/>
      <point x="94" y="-10"/>
    </contour>
    <contour>
      <point x="232" y="80" type="curve"/>
      <point x="160" y="80"/>
      <point x="120" y="121"/>
      <point x="120" y="195" type="curve" smooth="yes"/>
      <point x="120" y="334"/>
      <point x="201" y="450"/>
      <point x="301" y="450" type="curve"/>
      <point x="373" y="450"/>
      <point x="413" y="409"/>
      <point x="413" y="335" type="curve" smooth="yes"/>
      <point x="413" y="196"/>
      <point x="332" y="80"/>
    </contour>
  </outline>
</glyph>
<glyph name="r" format="2">
  <advance width="342"/>
  <unicode hex="0072"/>
  <anchor x="42" y="0" name="bottom"/>
  <anchor x="230.655" y="530" name="top"/>
  <outline>
    <contour>
      <point x="-8" y="0" type="line"/>
      <point x="92" y="0" type="line"/>
      <point x="205" y="530" type="line"/>
      <point x="105" y="530" type="line"/>
    </contour>
    <contour>
      <point x="120" y="279" type="curve"/>
      <point x="154" y="292" type="line"/>
      <point x="175" y="389"/>
      <point x="235" y="429"/>
      <point x="314" y="429" type="curve"/>
      <point x="341" y="429" type="line"/>
      <point x="365" y="540" type="line"/>
      <point x="252" y="540"/>
      <point x="154" y="439"/>
    </contour>
  </outline>
</glyph>
<glyph name="t" format="2">
  <advance width="371"/>
  <unicode hex="0074"/>
  <anchor x="152" y="0" name="bottom"/>
  <anchor x="186" y="265" name="center"/>
  <anchor x="270" y="660" name="top"/>
  <anchor x="437" y="717" name="topright"/>
  <outline>
    <contour>
      <point x="204" y="-10" type="curve"/>
      <point x="226" y="-10"/>
      <point x="251" y="-7"/>
      <point x="275" y="0" type="curve"/>
      <point x="295" y="93" type="line"/>
      <point x="271" y="87"/>
      <point x="248" y="83"/>
      <point x="221" y="83" type="curve" smooth="yes"/>
      <point x="175" y="83"/>
      <point x="150" y="99"/>
      <point x="150" y="139" type="curve" smooth="yes"/>
      <point x="150" y="148"/>
      <point x="151" y="157"/>
      <point x="153" y="168" type="curve" smooth="yes"/>
      <point x="257" y="660" type="line"/>
      <point x="153" y="640" type="line"/>
      <point x="55" y="180" type="line" smooth="yes"/>
      <point x="51" y="163"/>
      <point x="49" y="140"/>
      <point x="49" y="125" type="curve" smooth="yes"/>
      <point x="49" y="52"/>
      <point x="91" y="-10"/>
    </contour>
    <contour>
      <point x="36" y="443" type="line"/>
      <point x="364" y="443" type="line"/>
      <point x="383" y="530" type="line"/>
      <point x="55" y="530" type="line"/>
    </contour>
  </outline>
</glyph>
<glyph name="v" format="2">
  <advance width="508"/>
  <unicode hex="0076"/>
  <outline>
    <contour>
      <point x="160" y="0" type="line"/>
      <point x="259" y="0" type="line"/>
      <point x="541" y="530" type="line"/>
      <point x="434" y="530" type="line"/>
    </contour>
    <contour>
      <point x="105" y="0" type="line"/>
      <point x="200" y="0" type="line"/>
      <point x="148" y="530" type="line"/>
      <point x="49" y="530" type="line"/>
    </contour>
  </outline>
</glyph>
<glyph name="w" format="2">
  <advance width="768"/>
  <unicode hex="0077"/>
  <anchor x="328" y="0" name="bottom"/>
  <anchor x="440" y="530" name="top"/>
  <outline>
    <contour>
      <point x="68" y="0" type="line"/>
      <point x="212" y="0" type="line"/>
      <point x="404" y="431" type="line"/>
      <point x="412" y="0" type="line"/>
      <point x="556" y="0" type="line"/>
      <point x="799" y="530" type="line"/>
      <point x="696" y="530" type="line"/>
      <point x="502" y="83" type="line"/>
      <point x="490" y="530" type="line"/>
      <point x="357" y="530" type="line"/>
      <point x="158" y="82" type="line"/>
      <point x="150" y="530" type="line"/>
      <point x="51" y="530" type="line"/>
    </contour>
  </outline>
</glyph>
<glyph name="z" format="2">
  <advance width="487"/>
  <unicode hex="007A"/>
  <anchor x="188" y="0" name="bottom"/>
  <anchor x="244" y="265" name="center"/>
  <anchor x="300" y="530" name="top"/>
  <outline>
    <contour>
      <point x="-36" y="0" type="line"/>
      <point x="377" y="0" type="line"/>
      <point x="395" y="87" type="line"/>
      <point x="130" y="87" type="line"/>
      <point x="469" y="478" type="line"/>
      <point x="480" y="530" type="line"/>
      <point x="87" y="530" type="line"/>
      <point x="68" y="443" type="line"/>
      <point x="314" y="443" type="line"/>
      <point x="-25" y="52" type="line"/>
    </contour>
  </outline>
</glyph>
<glyph name="braceleft" format="2">
  <advance width="337"/>
  <unicode hex="007B"/>
  <outline>
    <contour>
      <point x="233" y="-135" type="curve"/>
      <point x="258" y="-58" type="line"/>
      <point x="165" y="-49"/>
      <point x="118" y="-20"/>
      <point x="118" y="23" type="curve"/>
      <point x="118" y="103"/>
      <point x="242" y="142"/>
      <point x="242" y="250" type="curve"/>
      <point x="242" y="302"/>
      <point x="202" y="326"/>
      <point x="136" y="330" type="curve"/>
      <point x="130" y="310" type="line"/>
      <point x="230" y="307"/>
      <point x="281" y="363"/>
      <point x="281" y="429" type="curve"/>
      <point x="281" y="490"/>
      <point x="237" y="524"/>
      <point x="237" y="582" type="curve"/>
      <point x="237" y="648"/>
      <point x="296" y="699"/>
      <point x="420" y="708" type="curve"/>
      <point x="418" y="785" type="line"/>
      <point x="229" y="777"/>
      <point x="139" y="697"/>
      <point x="139" y="591" type="curve"/>
      <point x="139" y="514"/>
      <point x="191" y="472"/>
      <point x="191" y="429" type="curve" smooth="yes"/>
      <point x="191" y="390"/>
      <point x="167" y="366"/>
      <point x="115" y="366" type="curve"/>
      <point x="79" y="366" type="line"/>
      <point x="61" y="284" type="line"/>
      <point x="103" y="284" type="line"/>
      <point x="136" y="284"/>
      <point x="151" y="272"/>
      <point x="151" y="245" type="curve" smooth="yes"/>
      <point x="151" y="159"/>
      <point x="20" y="123"/>
      <point x="20" y="11" type="curve" smooth="yes"/>
      <point x="20" y="-56"/>
      <point x="82" y="-114"/>
    </contour>
  </outline>
</glyph>
<glyph name="braceright" format="2">
  <advance width="338"/>
  <unicode hex="007D"/>
  <outline>
    <contour>
      <point x="-90" y="-58" type="curve"/>
      <point x="-88" y="-135" type="line"/>
      <point x="101" y="-127"/>
      <point x="191" y="-47"/>
      <point x="191" y="59" type="curve"/>
      <point x="191" y="136"/>
      <point x="139" y="178"/>
      <point x="139" y="221" type="curve" smooth="yes"/>
      <point x="139" y="260"/>
      <point x="163" y="284"/>
      <point x="215" y="284" type="curve"/>
      <point x="251" y="284" type="line"/>
      <point x="269" y="366" type="line"/>
      <point x="227" y="366" type="line"/>
      <point x="194" y="366"/>
      <point x="179" y="378"/>
      <point x="179" y="405" type="curve" smooth="yes"/>
      <point x="179" y="491"/>
      <point x="310" y="527"/>
      <point x="310" y="639" type="curve" smooth="yes"/>
      <point x="310" y="706"/>
      <point x="248" y="764"/>
      <point x="97" y="785" type="curve"/>
      <point x="72" y="708" type="line"/>
      <point x="165" y="699"/>
      <point x="212" y="670"/>
      <point x="212" y="627" type="curve"/>
      <point x="212" y="547"/>
      <point x="88" y="508"/>
      <point x="88" y="400" type="curve"/>
      <point x="88" y="348"/>
      <point x="128" y="324"/>
      <point x="194" y="320" type="curve"/>
      <point x="200" y="340" type="line"/>
      <point x="100" y="343"/>
      <point x="49" y="287"/>
      <point x="49" y="221" type="curve"/>
      <point x="49" y="160"/>
      <point x="93" y="126"/>
      <point x="93" y="68" type="curve"/>
      <point x="93" y="2"/>
      <point x="34" y="-49"/>
    </contour>
  </outline>
</glyph>
<glyph name="exclamdown" format="2">
  <advance width="269"/>
  <unicode hex="00A1"/>
  <outline>
    <contour>
      <point x="-27" y="-175" type="line"/>
      <point x="78" y="-175" type="line"/>
      <point x="126" y="52" type="line"/>
      <point x="157" y="303" type="line"/>
      <point x="95" y="303" type="line"/>
      <point x="21" y="52" type="line"/>
    </contour>
    <contour>
      <point x="158" y="407" type="curve"/>
      <point x="199" y="407"/>
      <point x="229" y="436"/>
      <point x="229" y="478" type="curve"/>
      <point x="229" y="515"/>
      <point x="204" y="540"/>
      <point x="167" y="540" type="curve"/>
      <point x="126" y="540"/>
      <point x="97" y="511"/>
      <point x="97" y="467" type="curve"/>
      <point x="97" y="432"/>
      <point x="122" y="407"/>
    </contour>
  </outline>
</glyph>
<glyph name="cent" format="2">
  <advance width="493"/>
  <unicode hex="00A2"/>
  <outline>
    <contour>
      <point x="235" y="170" type="curve"/>
      <point x="331" y="170"/>
      <point x="412" y="220"/>
      <point x="460" y="325" type="curve"/>
      <point x="366" y="359" type="line"/>
      <point x="337" y="289"/>
      <point x="295" y="260"/>
      <point x="248" y="260" type="curve"/>
      <point x="188" y="260"/>
      <point x="152" y="297"/>
      <point x="152" y="365" type="curve" smooth="yes"/>
      <point x="152" y="499"/>
      <point x="228" y="610"/>
      <point x="322" y="610" type="curve"/>
      <point x="373" y="610"/>
      <point x="405" y="582"/>
      <point x="413" y="515" type="curve"/>
      <point x="511" y="544" type="line"/>
      <point x="497" y="646"/>
      <point x="426" y="700"/>
      <point x="336" y="700" type="curve"/>
      <point x="173" y="700"/>
      <point x="48" y="549"/>
      <point x="48" y="360" type="curve" smooth="yes"/>
      <point x="48" y="247"/>
      <point x="122" y="170"/>
    </contour>
    <contour>
      <point x="123" y="-110" type="line"/>
      <point x="213" y="-110" type="line"/>
      <point x="283" y="222" type="line"/>
      <point x="193" y="222" type="line"/>
    </contour>
    <contour>
      <point x="285" y="652" type="line"/>
      <point x="375" y="652" type="line"/>
      <point x="406" y="800" type="line"/>
      <point x="316" y="800" type="line"/>
    </contour>
  </outline>
</glyph>
<glyph name="sterling" format="2">
  <advance width="564"/>
  <unicode hex="00A3"/>
  <outline>
    <contour>
      <point x="-9" y="67" type="curve"/>
      <point x="70" y="52" type="line"/>
      <point x="210" y="147"/>
      <point x="238" y="208"/>
      <point x="238" y="288" type="curve" smooth="yes"/>
      <point x="238" y="350"/>
      <point x="205" y="406"/>
      <point x="205" y="478" type="curve"/>
      <point x="205" y="557"/>
      <point x="265" y="608"/>
      <point x="327" y="608" type="curve"/>
      <point x="399" y="608"/>
      <point x="429" y="563"/>
      <point x="437" y="493" type="curve"/>
      <point x="536" y="513" type="line"/>
      <point x="524" y="640"/>
      <point x="453" y="700"/>
      <point x="337" y="700" type="curve"/>
      <point x="208" y="700"/>
      <point x="98" y="605"/>
      <point x="98" y="472" type="curve"/>
      <point x="98" y="389"/>
      <point x="142" y="342"/>
      <point x="142" y="275" type="curve" smooth="yes"/>
      <point x="142" y="220"/>
      <point x="110" y="152"/>
    </contour>
    <contour>
      <point x="-23" y="0" type="line"/>
      <point x="431" y="0" type="line"/>
      <point x="451" y="96" type="line"/>
      <point x="77" y="96" type="line"/>
      <point x="-9" y="67" type="line"/>
    </contour>
    <contour>
      <point x="35" y="275" type="line"/>
      <point x="423" y="275" type="line"/>
      <point x="442" y="362" type="line"/>
      <point x="54" y="362" type="line"/>
    </contour>
  </outline>
</glyph>
<glyph name="yen" format="2">
  <advance width="594"/>
  <unicode hex="00A5"/>
  <outline>
    <contour>
      <point x="324" y="303" type="line"/>
      <point x="649" y="690" type="line"/>
      <point x="528" y="690" type="line"/>
      <point x="270" y="363" type="line"/>
    </contour>
    <contour>
      <point x="172" y="0" type="line"/>
      <point x="277" y="0" type="line"/>
      <point x="364" y="410" type="line"/>
      <point x="259" y="410" type="line"/>
    </contour>
    <contour>
      <point x="52" y="161" type="line"/>
      <point x="465" y="161" type="line"/>
      <point x="484" y="248" type="line"/>
      <point x="71" y="248" type="line"/>
    </contour>
    <contour>
      <point x="254" y="303" type="line"/>
      <point x="328" y="363" type="line"/>
      <point x="207" y="690" type="line"/>
      <point x="95" y="690" type="line"/>
    </contour>
    <contour>
      <point x="82" y="303" type="line"/>
      <point x="496" y="303" type="line"/>
      <point x="515" y="390" type="line"/>
      <point x="101" y="390" type="line"/>
    </contour>
  </outline>
</glyph>
<glyph name="brokenbar" format="2">
  <advance width="248"/>
  <unicode hex="00A6"/>
  <outline>
    <contour>
      <point x="96" y="425" type="line"/>
      <point x="186" y="425" type="line"/>
      <point x="260" y="770" type="line"/>
      <point x="170" y="770" type="line"/>
    </contour>
    <contour>
      <point x="-20" y="-120" type="line"/>
      <point x="70" y="-120" type="line"/>
      <point x="144" y="225" type="line"/>
      <point x="54" y="225" type="line"/>
    </contour>
  </outline>
</glyph>
<glyph name="section" format="2">
  <advance width="596"/>
  <unicode hex="00A7"/>
  <outline>
    <contour>
      <point x="209" y="-185" type="curve"/>
      <point x="351" y="-185"/>
      <point x="425" y="-88"/>
      <point x="425" y="0" type="curve"/>
      <point x="425" y="60"/>
      <point x="395" y="108"/>
      <point x="347" y="123" type="curve"/>
      <point x="345" y="118" type="line"/>
      <point x="464" y="114"/>
      <point x="540" y="195"/>
      <point x="540" y="272" type="curve"/>
      <point x="540" y="461"/>
      <point x="237" y="400"/>
      <point x="237" y="530" type="curve"/>
      <point x="237" y="572"/>
      <point x="282" y="607"/>
      <point x="341" y="607" type="curve"/>
      <point x="405" y="607"/>
      <point x="439" y="577"/>
      <point x="450" y="515" type="curve"/>
      <point x="552" y="547" type="line"/>
      <point x="534" y="643"/>
      <point x="450" y="700"/>
      <point x="351" y="700" type="curve"/>
      <point x="209" y="700"/>
      <point x="135" y="603"/>
      <point x="135" y="513" type="curve"/>
      <point x="135" y="455"/>
      <point x="165" y="407"/>
      <point x="213" y="391" type="curve"/>
      <point x="215" y="397" type="line"/>
      <point x="96" y="401"/>
      <point x="20" y="320"/>
      <point x="20" y="243" type="curve"/>
      <point x="20" y="54"/>
      <point x="323" y="115"/>
      <point x="323" y="-13" type="curve"/>
      <point x="323" y="-57"/>
      <point x="278" y="-92"/>
      <point x="219" y="-92" type="curve"/>
      <point x="155" y="-92"/>
      <point x="121" y="-62"/>
      <point x="110" y="0" type="curve"/>
      <point x="8" y="-32" type="line"/>
      <point x="26" y="-128"/>
      <point x="110" y="-185"/>
    </contour>
    <contour>
      <point x="317" y="160" type="curve"/>
      <point x="232" y="160"/>
      <point x="122" y="192"/>
      <point x="122" y="264" type="curve"/>
      <point x="122" y="316"/>
      <point x="169" y="355"/>
      <point x="243" y="355" type="curve"/>
      <point x="328" y="355"/>
      <point x="438" y="323"/>
      <point x="438" y="251" type="curve"/>
      <point x="438" y="199"/>
      <point x="391" y="160"/>
    </contour>
  </outline>
</glyph>
<glyph name="copyright" format="2">
  <advance width="809"/>
  <unicode hex="00A9"/>
  <outline>
    <contour>
      <point x="406" y="-10" type="curve" smooth="yes"/>
      <point x="607" y="-10"/>
      <point x="757" y="150"/>
      <point x="757" y="345" type="curve" smooth="yes"/>
      <point x="757" y="540"/>
      <point x="607" y="700"/>
      <point x="406" y="700" type="curve" smooth="yes"/>
      <point x="205" y="700"/>
      <point x="55" y="540"/>
      <point x="55" y="345" type="curve" smooth="yes"/>
      <point x="55" y="150"/>
      <point x="205" y="-10"/>
    </contour>
    <contour>
      <point x="406" y="65" type="curve" smooth="yes"/>
      <point x="251" y="65"/>
      <point x="135" y="191"/>
      <point x="135" y="345" type="curve" smooth="yes"/>
      <point x="135" y="499"/>
      <point x="251" y="625"/>
      <point x="406" y="625" type="curve" smooth="yes"/>
      <point x="561" y="625"/>
      <point x="677" y="499"/>
      <point x="677" y="345" type="curve" smooth="yes"/>
      <point x="677" y="191"/>
      <point x="561" y="65"/>
    </contour>
    <contour>
      <point x="410" y="137" type="curve"/>
      <point x="487" y="137"/>
      <point x="546" y="177"/>
      <point x="569" y="254" type="curve"/>
      <point x="488" y="276" type="line"/>
      <point x="475" y="230"/>
      <point x="448" y="211"/>
      <point x="406" y="211" type="curve"/>
      <point x="352" y="211"/>
      <point x="315" y="251"/>
      <point x="315" y="340" type="curve" smooth="yes"/>
      <point x="315" y="429"/>
      <point x="352" y="469"/>
      <point x="406" y="469" type="curve"/>
      <point x="448" y="469"/>
      <point x="475" y="450"/>
      <point x="490" y="405" type="curve"/>
      <point x="569" y="428" type="line"/>
      <point x="546" y="503"/>
      <point x="487" y="543"/>
      <point x="410" y="543" type="curve" smooth="yes"/>
      <point x="302" y="543"/>
      <point x="228" y="463"/>
      <point x="228" y="340" type="curve" smooth="yes"/>
      <point x="228" y="216"/>
      <point x="302" y="137"/>
    </contour>
  </outline>
</glyph>
<glyph name="ordfeminine" format="2">
  <advance width="335"/>
  <unicode hex="00AA"/>
  <outline>
    <contour>
      <point x="153" y="376" type="curve"/>
      <point x="235" y="376"/>
      <point x="296" y="472"/>
      <point x="296" y="581" type="curve"/>
      <point x="296" y="649"/>
      <point x="261" y="698"/>
      <point x="206" y="698" type="curve"/>
      <point x="120" y="698"/>
      <point x="56" y="609"/>
      <point x="56" y="508" type="curve"/>
      <point x="56" y="432"/>
      <point x="93" y="376"/>
    </contour>
    <contour>
      <point x="188" y="447" type="curve"/>
      <point x="156" y="447"/>
      <point x="138" y="473"/>
      <point x="138" y="514" type="curve"/>
      <point x="138" y="574"/>
      <point x="173" y="627"/>
      <point x="216" y="627" type="curve"/>
      <point x="248" y="627"/>
      <point x="269" y="601"/>
      <point x="269" y="560" type="curve"/>
      <point x="269" y="500"/>
      <point x="231" y="447"/>
    </contour>
    <contour>
      <point x="230" y="384" type="line"/>
      <point x="310" y="384" type="line"/>
      <point x="375" y="690" type="line"/>
      <point x="295" y="690" type="line"/>
      <point x="275" y="598" type="line"/>
      <point x="277" y="531" type="line"/>
      <point x="246" y="462" type="line"/>
    </contour>
  </outline>
</glyph>
<glyph name="guillemotleft" format="2">
  <advance width="453"/>
  <unicode hex="00AB"/>
  <outline>
    <contour>
      <point x="293" y="80" type="line"/>
      <point x="392" y="80" type="line"/>
      <point x="290" y="280" type="line"/>
      <point x="481" y="500" type="line"/>
      <point x="366" y="500" type="line"/>
      <point x="217" y="323" type="line"/>
      <point x="203" y="257" type="line"/>
    </contour>
    <contour>
      <point x="93" y="80" type="line"/>
      <point x="192" y="80" type="line"/>
      <point x="90" y="280" type="line"/>
      <point x="281" y="500" type="line"/>
      <point x="166" y="500" type="line"/>
      <point x="17" y="323" type="line"/>
      <point x="3" y="257" type="line"/>
    </contour>
  </outline>
</glyph>
<glyph name="registered" format="2">
  <advance width="809"/>
  <unicode hex="00AE"/>
  <outline>
    <contour>
      <point x="406" y="-10" type="curve" smooth="yes"/>
      <point x="607" y="-10"/>
      <point x="757" y="150"/>
      <point x="757" y="345" type="curve" smooth="yes"/>
      <point x="757" y="540"/>
      <point x="607" y="700"/>
      <point x="406" y="700" type="curve" smooth="yes"/>
      <point x="205" y="700"/>
      <point x="55" y="540"/>
      <point x="55" y="345" type="curve" smooth="yes"/>
      <point x="55" y="150"/>
      <point x="205" y="-10"/>
    </contour>
    <contour>
      <point x="406" y="65" type="curve" smooth="yes"/>
      <point x="251" y="65"/>
      <point x="135" y="191"/>
      <point x="135" y="345" type="curve" smooth="yes"/>
      <point x="135" y="499"/>
      <point x="251" y="625"/>
      <point x="406" y="625" type="curve" smooth="yes"/>
      <point x="561" y="625"/>
      <point x="677" y="499"/>
      <point x="677" y="345" type="curve" smooth="yes"/>
      <point x="677" y="191"/>
      <point x="561" y="65"/>
    </contour>
    <contour>
      <point x="259" y="142" type="line"/>
      <point x="343" y="142" type="line"/>
      <point x="343" y="540" type="line"/>
      <point x="259" y="540" type="line"/>
    </contour>
    <contour>
      <point x="477" y="142" type="line"/>
      <point x="576" y="142" type="line"/>
      <point x="467" y="304" type="line"/>
      <point x="374" y="304" type="line"/>
    </contour>
    <contour>
      <point x="299" y="272" type="line"/>
      <point x="414" y="272" type="line"/>
      <point x="510" y="272"/>
      <point x="572" y="323"/>
      <point x="572" y="406" type="curve" smooth="yes"/>
      <point x="572" y="489"/>
      <point x="510" y="540"/>
      <point x="414" y="540" type="curve"/>
      <point x="299" y="540" type="line"/>
      <point x="299" y="462" type="line"/>
      <point x="406" y="462" type="line"/>
      <point x="459" y="462"/>
      <point x="484" y="444"/>
      <point x="484" y="406" type="curve" smooth="yes"/>
      <point x="484" y="369"/>
      <point x="459" y="350"/>
      <point x="406" y="350" type="curve"/>
      <point x="299" y="350" type="line"/>
    </contour>
  </outline>
</glyph>
<glyph name="degree" format="2">
  <advance width="400"/>
  <unicode hex="00B0"/>
  <outline>
    <contour>
      <point x="222" y="374" type="curve"/>
      <point x="327" y="374"/>
      <point x="404" y="457"/>
      <point x="404" y="568" type="curve"/>
      <point x="404" y="640"/>
      <point x="351" y="700"/>
      <point x="263" y="700" type="curve"/>
      <point x="158" y="700"/>
      <point x="81" y="617"/>
      <point x="81" y="506" type="curve"/>
      <point x="81" y="434"/>
      <point x="134" y="374"/>
    </contour>
    <contour>
      <point x="228" y="450" type="curve"/>
      <point x="191" y="450"/>
      <point x="168" y="472"/>
      <point x="168" y="514" type="curve"/>
      <point x="168" y="568"/>
      <point x="208" y="624"/>
      <point x="257" y="624" type="curve"/>
      <point x="294" y="624"/>
      <point x="317" y="602"/>
      <point x="317" y="560" type="curve"/>
      <point x="317" y="506"/>
      <point x="277" y="450"/>
    </contour>
  </outline>
</glyph>
<glyph name="plusminus" format="2">
  <advance width="532"/>
  <unicode hex="00B1"/>
  <outline>
    <contour>
      <point x="55" y="318" type="line"/>
      <point x="468" y="318" type="line"/>
      <point x="485" y="399" type="line"/>
      <point x="72" y="399" type="line"/>
    </contour>
    <contour>
      <point x="0" y="62" type="line"/>
      <point x="413" y="62" type="line"/>
      <point x="430" y="143" type="line"/>
      <point x="17" y="143" type="line"/>
    </contour>
    <contour>
      <point x="194" y="202" type="line"/>
      <point x="279" y="202" type="line"/>
      <point x="345" y="515" type="line"/>
      <point x="260" y="515" type="line"/>
    </contour>
  </outline>
</glyph>
<glyph name="uni00B2" format="2">
  <advance width="261"/>
  <unicode hex="00B2"/>
  <outline>
    <contour>
      <point x="115" y="430" type="line"/>
      <point x="211" y="492" type="line" smooth="yes"/>
      <point x="269" y="529"/>
      <point x="295" y="564"/>
      <point x="295" y="612" type="curve"/>
      <point x="295" y="663"/>
      <point x="253" y="697"/>
      <point x="196" y="697" type="curve"/>
      <point x="129" y="697"/>
      <point x="87" y="664"/>
      <point x="70" y="596" type="curve"/>
      <point x="137" y="577" type="line"/>
      <point x="148" y="618"/>
      <point x="167" y="628"/>
      <point x="187" y="628" type="curve"/>
      <point x="205" y="628"/>
      <point x="218" y="617"/>
      <point x="218" y="601" type="curve"/>
      <point x="218" y="582"/>
      <point x="203" y="564"/>
      <point x="160" y="531" type="curve" smooth="yes"/>
      <point x="36" y="437" type="line"/>
    </contour>
    <contour>
      <point x="25" y="384" type="line"/>
      <point x="258" y="384" type="line"/>
      <point x="272" y="450" type="line"/>
      <point x="69" y="450" type="line"/>
      <point x="36" y="437" type="line"/>
    </contour>
  </outline>
</glyph>
<glyph name="uni00B3" format="2">
  <advance width="262"/>
  <unicode hex="00B3"/>
  <outline>
    <contour>
      <point x="151" y="377" type="curve"/>
      <point x="222" y="377"/>
      <point x="281" y="430"/>
      <point x="281" y="499" type="curve" smooth="yes"/>
      <point x="281" y="537"/>
      <point x="256" y="576"/>
      <point x="214" y="576" type="curve"/>
      <point x="204" y="576"/>
      <point x="189" y="575"/>
      <point x="176" y="573" type="curve"/>
      <point x="179" y="547" type="line"/>
      <point x="305" y="637" type="line"/>
      <point x="250" y="667" type="line"/>
      <point x="128" y="565" type="line"/>
      <point x="120" y="528" type="line"/>
      <point x="163" y="528" type="line"/>
      <point x="193" y="528"/>
      <point x="208" y="514"/>
      <point x="208" y="491" type="curve"/>
      <point x="208" y="461"/>
      <point x="189" y="442"/>
      <point x="155" y="442" type="curve"/>
      <point x="133" y="442"/>
      <point x="112" y="455"/>
      <point x="109" y="488" type="curve"/>
      <point x="37" y="473" type="line"/>
      <point x="45" y="410"/>
      <point x="87" y="377"/>
    </contour>
    <contour>
      <point x="77" y="624" type="line"/>
      <point x="273" y="624" type="line"/>
      <point x="305" y="637" type="line"/>
      <point x="317" y="690" type="line"/>
      <point x="91" y="690" type="line"/>
    </contour>
  </outline>
</glyph>
<glyph name="paragraph" format="2">
  <advance width="635"/>
  <unicode hex="00B6"/>
  <outline>
    <contour>
      <point x="261" y="240" type="curve"/>
      <point x="311" y="240" type="line"/>
      <point x="407" y="690" type="line"/>
      <point x="329" y="690" type="line"/>
      <point x="173" y="690"/>
      <point x="64" y="574"/>
      <point x="64" y="429" type="curve"/>
      <point x="64" y="304"/>
      <point x="145" y="240"/>
    </contour>
    <contour>
      <point x="187" y="-120" type="line"/>
      <point x="277" y="-120" type="line"/>
      <point x="450" y="690" type="line"/>
      <point x="360" y="690" type="line"/>
    </contour>
    <contour>
      <point x="367" y="-120" type="line"/>
      <point x="457" y="-120" type="line"/>
      <point x="630" y="690" type="line"/>
      <point x="540" y="690" type="line"/>
    </contour>
  </outline>
</glyph>
<glyph name="uni00B9" format="2">
  <advance width="170"/>
  <unicode hex="00B9"/>
  <outline>
    <contour>
      <point x="70" y="384" type="line"/>
      <point x="147" y="384" type="line"/>
      <point x="212" y="690" type="line"/>
      <point x="145" y="690" type="line"/>
      <point x="118" y="610" type="line"/>
    </contour>
    <contour>
      <point x="65" y="635" type="curve"/>
      <point x="55" y="589" type="line"/>
      <point x="149" y="589" type="line"/>
      <point x="145" y="690" type="line"/>
      <point x="130" y="651"/>
      <point x="109" y="639"/>
    </contour>
  </outline>
</glyph>
<glyph name="ordmasculine" format="2">
  <advance width="327"/>
  <unicode hex="00BA"/>
  <outline>
    <contour>
      <point x="187" y="376" type="curve"/>
      <point x="281" y="376"/>
      <point x="355" y="465"/>
      <point x="355" y="566" type="curve"/>
      <point x="355" y="643"/>
      <point x="305" y="698"/>
      <point x="225" y="698" type="curve"/>
      <point x="131" y="698"/>
      <point x="57" y="609"/>
      <point x="57" y="508" type="curve"/>
      <point x="57" y="431"/>
      <point x="107" y="376"/>
    </contour>
    <contour>
      <point x="192" y="449" type="curve"/>
      <point x="160" y="449"/>
      <point x="139" y="473"/>
      <point x="139" y="514" type="curve"/>
      <point x="139" y="574"/>
      <point x="177" y="625"/>
      <point x="220" y="625" type="curve"/>
      <point x="252" y="625"/>
      <point x="273" y="601"/>
      <point x="273" y="560" type="curve"/>
      <point x="273" y="500"/>
      <point x="235" y="449"/>
    </contour>
  </outline>
</glyph>
<glyph name="onequarter" format="2">
  <advance width="666"/>
  <unicode hex="00BC"/>
  <outline>
    <contour>
      <point x="-21" y="0" type="line"/>
      <point x="92" y="0" type="line"/>
      <point x="677" y="690" type="line"/>
      <point x="564" y="690" type="line"/>
    </contour>
    <contour>
      <point x="119" y="384" type="line"/>
      <point x="196" y="384" type="line"/>
      <point x="261" y="690" type="line"/>
      <point x="194" y="690" type="line"/>
      <point x="179" y="651"/>
      <point x="158" y="639"/>
      <point x="114" y="635" type="curve"/>
      <point x="104" y="589" type="line"/>
      <point x="163" y="589" type="line"/>
    </contour>
    <contour>
      <point x="450" y="0" type="line"/>
      <point x="525" y="0" type="line"/>
      <point x="535" y="48" type="line"/>
      <point x="573" y="48" type="line"/>
      <point x="586" y="109" type="line"/>
      <point x="548" y="109" type="line"/>
      <point x="590" y="306" type="line"/>
      <point x="485" y="306" type="line"/>
      <point x="332" y="92" type="line"/>
      <point x="322" y="48" type="line"/>
      <point x="460" y="48" type="line"/>
    </contour>
    <contour>
      <point x="414" y="109" type="line"/>
      <point x="499" y="229" type="line"/>
      <point x="473" y="109" type="line"/>
    </contour>
  </outline>
</glyph>
<glyph name="threequarters" format="2">
  <advance width="701"/>
  <unicode hex="00BE"/>
  <outline>
    <contour>
      <point x="14" y="0" type="line"/>
      <point x="127" y="0" type="line"/>
      <point x="712" y="690" type="line"/>
      <point x="599" y="690" type="line"/>
    </contour>
    <contour>
      <point x="357" y="48" type="line"/>
      <point x="608" y="48" type="line"/>
      <point x="621" y="109" type="line"/>
      <point x="387" y="109" type="line"/>
      <point x="367" y="92" type="line"/>
    </contour>
    <contour>
      <point x="178" y="377" type="curve"/>
      <point x="249" y="377"/>
      <point x="308" y="430"/>
      <point x="308" y="499" type="curve" smooth="yes"/>
      <point x="308" y="537"/>
      <point x="283" y="576"/>
      <point x="241" y="576" type="curve"/>
      <point x="231" y="576"/>
      <point x="216" y="575"/>
      <point x="203" y="573" type="curve"/>
      <point x="206" y="547" type="line"/>
      <point x="332" y="637" type="line"/>
      <point x="277" y="667" type="line"/>
      <point x="155" y="565" type="line"/>
      <point x="147" y="528" type="line"/>
      <point x="190" y="528" type="line"/>
      <point x="220" y="528"/>
      <point x="235" y="514"/>
      <point x="235" y="491" type="curve"/>
      <point x="235" y="461"/>
      <point x="216" y="442"/>
      <point x="182" y="442" type="curve"/>
      <point x="160" y="442"/>
      <point x="139" y="455"/>
      <point x="136" y="488" type="curve"/>
      <point x="64" y="473" type="line"/>
      <point x="72" y="410"/>
      <point x="114" y="377"/>
    </contour>
    <contour>
      <point x="367" y="92" type="line"/>
      <point x="437" y="92" type="line"/>
      <point x="588" y="306" type="line"/>
      <point x="520" y="306" type="line"/>
    </contour>
    <contour>
      <point x="485" y="0" type="line"/>
      <point x="560" y="0" type="line"/>
      <point x="625" y="306" type="line"/>
      <point x="550" y="306" type="line"/>
    </contour>
    <contour>
      <point x="104" y="624" type="line"/>
      <point x="300" y="624" type="line"/>
      <point x="332" y="637" type="line"/>
      <point x="344" y="690" type="line"/>
      <point x="118" y="690" type="line"/>
    </contour>
  </outline>
</glyph>
<glyph name="questiondown" format="2">
  <advance width="559"/>
  <unicode hex="00BF"/>
  <outline>
    <contour>
      <point x="177" y="-185" type="curve"/>
      <point x="317" y="-185"/>
      <point x="402" y="-116"/>
      <point x="441" y="0" type="curve"/>
      <point x="348" y="35" type="line"/>
      <point x="323" y="-51"/>
      <point x="270" y="-92"/>
      <point x="182" y="-92" type="curve"/>
      <point x="114" y="-92"/>
      <point x="79" y="-62"/>
      <point x="79" y="-10" type="curve"/>
      <point x="79" y="100"/>
      <point x="292" y="92"/>
      <point x="322" y="268" type="curve" smooth="yes"/>
      <point x="328" y="303" type="line"/>
      <point x="237" y="303" type="line"/>
      <point x="231" y="275" type="line" smooth="yes"/>
      <point x="207" y="161"/>
      <point x="-31" y="174"/>
      <point x="-31" y="-17" type="curve"/>
      <point x="-31" y="-126"/>
      <point x="50" y="-185"/>
    </contour>
    <contour>
      <point x="312" y="407" type="curve"/>
      <point x="353" y="407"/>
      <point x="382" y="436"/>
      <point x="382" y="480" type="curve"/>
      <point x="382" y="515"/>
      <point x="357" y="540"/>
      <point x="321" y="540" type="curve"/>
      <point x="280" y="540"/>
      <point x="250" y="511"/>
      <point x="250" y="469" type="curve"/>
      <point x="250" y="432"/>
      <point x="275" y="407"/>
    </contour>
  </outline>
</glyph>
<glyph name="multiply" format="2">
  <advance width="532"/>
  <unicode hex="00D7"/>
  <outline>
    <contour>
      <point x="369" y="100" type="line"/>
      <point x="431" y="155" type="line"/>
      <point x="146" y="507" type="line"/>
      <point x="85" y="452" type="line"/>
    </contour>
    <contour>
      <point x="79" y="101" type="line"/>
      <point x="491" y="445" type="line"/>
      <point x="436" y="506" type="line"/>
      <point x="25" y="162" type="line"/>
    </contour>
  </outline>
</glyph>
<glyph name="eth" format="2">
  <advance width="563"/>
  <unicode hex="00F0"/>
  <anchor x="226" y="0" name="bottom"/>
  <anchor x="378" y="715" name="top"/>
  <outline>
    <contour>
      <point x="222" y="-10" type="curve"/>
      <point x="373" y="-10"/>
      <point x="513" y="108"/>
      <point x="513" y="343" type="curve" smooth="yes"/>
      <point x="513" y="462"/>
      <point x="466" y="600"/>
      <point x="349" y="715" type="curve"/>
      <point x="213" y="715" type="line"/>
      <point x="359" y="585"/>
      <point x="421" y="473"/>
      <point x="421" y="327" type="curve" smooth="yes"/>
      <point x="421" y="325"/>
      <point x="421" y="322"/>
      <point x="421" y="320" type="curve"/>
      <point x="429" y="320" type="line"/>
      <point x="422" y="408"/>
      <point x="357" y="456"/>
      <point x="269" y="456" type="curve"/>
      <point x="121" y="456"/>
      <point x="13" y="328"/>
      <point x="13" y="192" type="curve"/>
      <point x="13" y="71"/>
      <point x="94" y="-10"/>
    </contour>
    <contour>
      <point x="241" y="80" type="curve"/>
      <point x="169" y="80"/>
      <point x="116" y="120"/>
      <point x="116" y="197" type="curve"/>
      <point x="116" y="294"/>
      <point x="193" y="374"/>
      <point x="279" y="374" type="curve"/>
      <point x="360" y="374"/>
      <point x="401" y="334"/>
      <point x="401" y="267" type="curve" smooth="yes"/>
      <point x="401" y="167"/>
      <point x="325" y="80"/>
    </contour>
    <contour>
      <point x="271" y="488" type="line"/>
      <point x="518" y="658" type="line"/>
      <point x="472" y="725" type="line"/>
      <point x="225" y="555" type="line"/>
    </contour>
  </outline>
</glyph>
<glyph name="divide" format="2">
  <advance width="532"/>
  <unicode hex="00F7"/>
  <outline>
    <contour>
      <point x="43" y="263" type="line"/>
      <point x="456" y="263" type="line"/>
      <point x="473" y="344" type="line"/>
      <point x="60" y="344" type="line"/>
    </contour>
    <contour>
      <point x="217" y="82" type="curve"/>
      <point x="252" y="82"/>
      <point x="278" y="106"/>
      <point x="278" y="142" type="curve"/>
      <point x="278" y="173"/>
      <point x="256" y="194"/>
      <point x="225" y="194" type="curve"/>
      <point x="190" y="194"/>
      <point x="166" y="170"/>
      <point x="166" y="132" type="curve"/>
      <point x="166" y="103"/>
      <point x="187" y="82"/>
    </contour>
    <contour>
      <point x="287" y="412" type="curve"/>
      <point x="322" y="412"/>
      <point x="348" y="436"/>
      <point x="348" y="472" type="curve"/>
      <point x="348" y="503"/>
      <point x="326" y="524"/>
      <point x="295" y="524" type="curve"/>
      <point x="260" y="524"/>
      <point x="236" y="500"/>
      <point x="236" y="462" type="curve"/>
      <point x="236" y="433"/>
      <point x="257" y="412"/>
    </contour>
  </outline>
</glyph>
<glyph name="eogonek" format="2">
  <advance width="553"/>
  <unicode hex="0119"/>
  <outline>
    <contour>
      <point x="255" y="-185" type="curve"/>
      <point x="287" y="-185"/>
      <point x="324" y="-176"/>
      <point x="346" y="-165" type="curve"/>
      <point x="354" y="-84" type="line"/>
      <point x="329" y="-96"/>
      <point x="298" y="-106"/>
      <point x="274" y="-106" type="curve"/>
      <point x="261" y="-106"/>
      <point x="255" y="-101"/>
      <point x="255" y="-90" type="curve"/>
      <point x="255" y="-72"/>
      <point x="281" y="-28"/>
      <point x="365" y="33" type="curve" smooth="yes"/>
      <point x="400" y="59"/>
      <point x="432" y="88"/>
      <point x="455" y="125" type="curve"/>
      <point x="370" y="170" type="line"/>
      <point x="337" y="116"/>
      <point x="287" y="84"/>
      <point x="231" y="84" type="curve"/>
      <point x="159" y="84"/>
      <point x="119" y="121"/>
      <point x="119" y="195" type="curve" smooth="yes"/>
      <point x="119" y="337"/>
      <point x="199" y="454"/>
      <point x="296" y="454" type="curve"/>
      <point x="365" y="454"/>
      <point x="402" y="412"/>
      <point x="402" y="335" type="curve" smooth="yes"/>
      <point x="402" y="311"/>
      <point x="400" y="288"/>
      <point x="395" y="266" type="curve"/>
      <point x="433" y="310" type="line"/>
      <point x="115" y="310" type="line"/>
      <point x="98" y="231" type="line"/>
      <point x="490" y="231" type="line"/>
      <point x="499" y="265"/>
      <point x="506" y="302"/>
      <point x="506" y="340" type="curve" smooth="yes"/>
      <point x="506" y="459"/>
      <point x="430" y="540"/>
      <point x="308" y="540" type="curve"/>
      <point x="142" y="540"/>
      <point x="15" y="385"/>
      <point x="15" y="190" type="curve" smooth="yes"/>
      <point x="15" y="71"/>
      <point x="93" y="-10"/>
      <point x="218" y="-10" type="curve"/>
      <point x="243" y="-10"/>
      <point x="268" y="-7"/>
      <point x="291" y="0" type="curve"/>
      <point x="279" y="0" type="line"/>
      <point x="196" y="-35"/>
      <point x="167" y="-74"/>
      <point x="167" y="-118" type="curve"/>
      <point x="167" y="-155"/>
      <point x="193" y="-185"/>
    </contour>
  </outline>
</glyph>
<glyph name="Hbar" format="2">
  <advance width="734"/>
  <unicode hex="0126"/>
  <outline>
    <contour>
      <point x="17" y="0" type="line"/>
      <point x="122" y="0" type="line"/>
      <point x="183" y="286" type="line"/>
      <point x="528" y="286" type="line"/>
      <point x="467" y="0" type="line"/>
      <point x="572" y="0" type="line"/>
      <point x="719" y="690" type="line"/>
      <point x="614" y="690" type="line"/>
      <point x="548" y="382" type="line"/>
      <point x="203" y="382" type="line"/>
      <point x="269" y="690" type="line"/>
      <point x="164" y="690" type="line"/>
    </contour>
    <contour>
      <point x="49" y="482" type="line"/>
      <point x="744" y="482" type="line"/>
      <point x="764" y="573" type="line"/>
      <point x="69" y="573" type="line"/>
    </contour>
  </outline>
</glyph>
<glyph name="hbar" format="2">
  <advance width="579"/>
  <unicode hex="0127"/>
  <outline>
    <contour>
      <point x="3" y="0" type="line"/>
      <point x="103" y="0" type="line"/>
      <point x="169" y="309" type="line" smooth="yes"/>
      <point x="189" y="403"/>
      <point x="254" y="454"/>
      <point x="321" y="454" type="curve"/>
      <point x="381" y="454"/>
      <point x="418" y="418"/>
      <point x="418" y="351" type="curve" smooth="yes"/>
      <point x="418" y="338"/>
      <point x="416" y="324"/>
      <point x="413" y="309" type="curve" smooth="yes"/>
      <point x="347" y="0" type="line"/>
      <point x="447" y="0" type="line"/>
      <point x="514" y="313" type="line" smooth="yes"/>
      <point x="517" y="328"/>
      <point x="520" y="351"/>
      <point x="520" y="369" type="curve" smooth="yes"/>
      <point x="520" y="469"/>
      <point x="461" y="540"/>
      <point x="364" y="540" type="curve"/>
      <point x="262" y="540"/>
      <point x="166" y="451"/>
      <point x="136" y="309" type="curve"/>
      <point x="179" y="358" type="line"/>
      <point x="255" y="715" type="line"/>
      <point x="155" y="715" type="line"/>
    </contour>
    <contour>
      <point x="68" y="580" type="line"/>
      <point x="343" y="580" type="line"/>
      <point x="357" y="653" type="line"/>
      <point x="82" y="653" type="line"/>
    </contour>
  </outline>
</glyph>
<glyph name="dotlessi" format="2">
  <advance width="229"/>
  <unicode hex="0131"/>
  <anchor x="92" y="0" name="ogonek"/>
  <anchor x="154" y="530" name="top"/>
  <outline>
    <contour>
      <point x="-8" y="0" type="line"/>
      <point x="92" y="0" type="line"/>
      <point x="205" y="530" type="line"/>
      <point x="105" y="530" type="line"/>
    </contour>
  </outline>
</glyph>
<glyph name="kgreenlandic" format="2">
  <advance width="514"/>
  <unicode hex="0138"/>
  <anchor x="203" y="0" name="bottom"/>
  <outline>
    <contour>
      <point x="114" y="136" type="line"/>
      <point x="533" y="530" type="line"/>
      <point x="403" y="530" type="line"/>
      <point x="144" y="276" type="line"/>
    </contour>
    <contour>
      <point x="-8" y="0" type="line"/>
      <point x="92" y="0" type="line"/>
      <point x="205" y="530" type="line"/>
      <point x="105" y="530" type="line"/>
    </contour>
    <contour>
      <point x="320" y="0" type="line"/>
      <point x="433" y="0" type="line"/>
      <point x="272" y="307" type="line"/>
      <point x="202" y="240" type="line"/>
    </contour>
  </outline>
</glyph>
<glyph name="oe" format="2">
  <advance width="937"/>
  <unicode hex="0153"/>
  <outline>
    <contour>
      <point x="213" y="-10" type="curve"/>
      <point x="373" y="-10"/>
      <point x="496" y="145"/>
      <point x="496" y="340" type="curve" smooth="yes"/>
      <point x="496" y="459"/>
      <point x="424" y="540"/>
      <point x="308" y="540" type="curve"/>
      <point x="142" y="540"/>
      <point x="15" y="385"/>
      <point x="15" y="190" type="curve" smooth="yes"/>
      <point x="15" y="71"/>
      <point x="91" y="-10"/>
    </contour>
    <contour>
      <point x="231" y="80" type="curve"/>
      <point x="159" y="80"/>
      <point x="119" y="121"/>
      <point x="119" y="195" type="curve" smooth="yes"/>
      <point x="119" y="334"/>
      <point x="200" y="450"/>
      <point x="300" y="450" type="curve"/>
      <point x="372" y="450"/>
      <point x="412" y="409"/>
      <point x="412" y="335" type="curve" smooth="yes"/>
      <point x="412" y="196"/>
      <point x="331" y="80"/>
    </contour>
    <contour>
      <point x="607" y="-10" type="curve"/>
      <point x="706" y="-10"/>
      <point x="789" y="43"/>
      <point x="839" y="125" type="curve"/>
      <point x="754" y="170" type="line"/>
      <point x="721" y="116"/>
      <point x="671" y="84"/>
      <point x="615" y="84" type="curve"/>
      <point x="543" y="84"/>
      <point x="503" y="121"/>
      <point x="503" y="195" type="curve" smooth="yes"/>
      <point x="503" y="337"/>
      <point x="583" y="454"/>
      <point x="680" y="454" type="curve"/>
      <point x="749" y="454"/>
      <point x="786" y="412"/>
      <point x="786" y="335" type="curve" smooth="yes"/>
      <point x="786" y="311"/>
      <point x="784" y="288"/>
      <point x="779" y="266" type="curve"/>
      <point x="817" y="310" type="line"/>
      <point x="499" y="310" type="line"/>
      <point x="482" y="231" type="line"/>
      <point x="874" y="231" type="line"/>
      <point x="883" y="265"/>
      <point x="890" y="302"/>
      <point x="890" y="340" type="curve" smooth="yes"/>
      <point x="890" y="459"/>
      <point x="816" y="540"/>
      <point x="697" y="540" type="curve"/>
      <point x="539" y="540"/>
      <point x="419" y="385"/>
      <point x="419" y="190" type="curve" smooth="yes"/>
      <point x="419" y="71"/>
      <point x="491" y="-10"/>
    </contour>
  </outline>
</glyph>
<glyph name="Tbar" format="2">
  <advance width="580"/>
  <unicode hex="0166"/>
  <outline>
    <contour>
      <point x="165" y="0" type="line"/>
      <point x="270" y="0" type="line"/>
      <point x="417" y="690" type="line"/>
      <point x="312" y="690" type="line"/>
    </contour>
    <contour>
      <point x="70" y="261" type="line"/>
      <point x="475" y="261" type="line"/>
      <point x="495" y="352" type="line"/>
      <point x="90" y="352" type="line"/>
    </contour>
    <contour>
      <point x="71" y="594" type="line"/>
      <point x="616" y="594" type="line"/>
      <point x="637" y="690" type="line"/>
      <point x="92" y="690" type="line"/>
    </contour>
  </outline>
</glyph>
<glyph name="uni018F" format="2">
  <advance width="698"/>
  <unicode hex="018F"/>
  <outline>
    <contour>
      <point x="288" y="-10" type="curve"/>
      <point x="500" y="-10"/>
      <point x="662" y="190"/>
      <point x="662" y="441" type="curve" smooth="yes"/>
      <point x="662" y="594"/>
      <point x="565" y="700"/>
      <point x="410" y="700" type="curve"/>
      <point x="286" y="700"/>
      <point x="179" y="631"/>
      <point x="112" y="523" type="curve"/>
      <point x="202" y="476" type="line"/>
      <point x="247" y="553"/>
      <point x="316" y="602"/>
      <point x="394" y="602" type="curve"/>
      <point x="499" y="602"/>
      <point x="554" y="543"/>
      <point x="554" y="434" type="curve" smooth="yes"/>
      <point x="554" y="244"/>
      <point x="445" y="88"/>
      <point x="305" y="88" type="curve"/>
      <point x="199" y="88"/>
      <point x="145" y="146"/>
      <point x="145" y="254" type="curve" smooth="yes"/>
      <point x="145" y="287"/>
      <point x="148" y="318"/>
      <point x="154" y="348" type="curve"/>
      <point x="115" y="283" type="line"/>
      <point x="567" y="283" type="line"/>
      <point x="588" y="379" type="line"/>
      <point x="54" y="379" type="line"/>
      <point x="42" y="338"/>
      <point x="37" y="294"/>
      <point x="37" y="248" type="curve" smooth="yes"/>
      <point x="37" y="94"/>
      <point x="133" y="-10"/>
    </contour>
  </outline>
</glyph>
<glyph name="florin" format="2">
  <advance width="449"/>
  <unicode hex="0192"/>
  <outline>
    <contour>
      <point x="-21" y="-185" type="curve"/>
      <point x="73" y="-185"/>
      <point x="138" y="-138"/>
      <point x="163" y="-21" type="curve"/>
      <point x="286" y="557" type="line" smooth="yes"/>
      <point x="297" y="610"/>
      <point x="328" y="636"/>
      <point x="376" y="636" type="curve"/>
      <point x="399" y="636"/>
      <point x="419" y="630"/>
      <point x="439" y="621" type="curve"/>
      <point x="457" y="708" type="line"/>
      <point x="431" y="718"/>
      <point x="403" y="725"/>
      <point x="371" y="725" type="curve"/>
      <point x="277" y="725"/>
      <point x="212" y="678"/>
      <point x="187" y="561" type="curve" smooth="yes"/>
      <point x="64" y="-17" type="line"/>
      <point x="53" y="-70"/>
      <point x="22" y="-96"/>
      <point x="-26" y="-96" type="curve"/>
      <point x="-49" y="-96"/>
      <point x="-69" y="-90"/>
      <point x="-89" y="-81" type="curve"/>
      <point x="-107" y="-168" type="line"/>
      <point x="-81" y="-178"/>
      <point x="-53" y="-185"/>
    </contour>
    <contour>
      <point x="87" y="443" type="line"/>
      <point x="396" y="443" type="line"/>
      <point x="415" y="530" type="line"/>
      <point x="106" y="530" type="line"/>
    </contour>
  </outline>
</glyph>
<glyph name="uni019D" format="2">
  <advance width="701"/>
  <unicode hex="019D"/>
  <outline>
    <contour>
      <point x="419" y="0" type="line"/>
      <point x="523" y="0" type="line"/>
      <point x="284" y="690" type="line"/>
      <point x="180" y="690" type="line"/>
    </contour>
    <contour>
      <point x="-87" y="-185" type="curve"/>
      <point x="7" y="-185"/>
      <point x="73" y="-138"/>
      <point x="98" y="-21" type="curve" smooth="yes"/>
      <point x="249" y="690" type="line"/>
      <point x="149" y="690" type="line"/>
      <point x="-2" y="-17" type="line" smooth="yes"/>
      <point x="-13" y="-70"/>
      <point x="-46" y="-94"/>
      <point x="-91" y="-94" type="curve"/>
      <point x="-114" y="-94"/>
      <point x="-134" y="-88"/>
      <point x="-154" y="-79" type="curve"/>
      <point x="-173" y="-168" type="line"/>
      <point x="-147" y="-178"/>
      <point x="-119" y="-185"/>
    </contour>
    <contour>
      <point x="454" y="0" type="line"/>
      <point x="554" y="0" type="line"/>
      <point x="701" y="690" type="line"/>
      <point x="601" y="690" type="line"/>
    </contour>
  </outline>
</glyph>
<glyph name="uni0237" format="2">
  <advance width="229"/>
  <unicode hex="0237"/>
  <anchor x="154" y="530" name="top"/>
  <outline>
    <contour>
      <point x="-97" y="-185" type="curve"/>
      <point x="-3" y="-185"/>
      <point x="63" y="-138"/>
      <point x="88" y="-21" type="curve" smooth="yes"/>
      <point x="205" y="530" type="line"/>
      <point x="105" y="530" type="line"/>
      <point x="-12" y="-17" type="line" smooth="yes"/>
      <point x="-23" y="-70"/>
      <point x="-56" y="-94"/>
      <point x="-101" y="-94" type="curve"/>
      <point x="-124" y="-94"/>
      <point x="-144" y="-88"/>
      <point x="-164" y="-79" type="curve"/>
      <point x="-183" y="-168" type="line"/>
      <point x="-157" y="-178"/>
      <point x="-129" y="-185"/>
    </contour>
  </outline>
</glyph>
<glyph name="uni0259" format="2">
  <advance width="552"/>
  <unicode hex="0259"/>
  <outline>
    <contour>
      <point x="212" y="-10" type="curve"/>
      <point x="378" y="-10"/>
      <point x="505" y="145"/>
      <point x="505" y="340" type="curve" smooth="yes"/>
      <point x="505" y="459"/>
      <point x="427" y="540"/>
      <point x="302" y="540" type="curve"/>
      <point x="201" y="540"/>
      <point x="116" y="487"/>
      <point x="65" y="405" type="curve"/>
      <point x="150" y="360" type="line"/>
      <point x="183" y="414"/>
      <point x="233" y="446"/>
      <point x="289" y="446" type="curve"/>
      <point x="361" y="446"/>
      <point x="401" y="409"/>
      <point x="401" y="335" type="curve" smooth="yes"/>
      <point x="401" y="193"/>
      <point x="321" y="76"/>
      <point x="224" y="76" type="curve"/>
      <point x="155" y="76"/>
      <point x="118" y="118"/>
      <point x="118" y="195" type="curve" smooth="yes"/>
      <point x="118" y="219"/>
      <point x="120" y="242"/>
      <point x="125" y="264" type="curve"/>
      <point x="87" y="220" type="line"/>
      <point x="405" y="220" type="line"/>
      <point x="422" y="299" type="line"/>
      <point x="30" y="299" type="line"/>
      <point x="21" y="265"/>
      <point x="14" y="228"/>
      <point x="14" y="190" type="curve" smooth="yes"/>
      <point x="14" y="71"/>
      <point x="90" y="-10"/>
    </contour>
  </outline>
</glyph>
<glyph name="uni02C9" format="2">
  <advance width="499"/>
  <unicode hex="02C9"/>
  <anchor x="289.655" y="530" name="_top"/>
  <outline>
    <contour>
      <point x="171" y="621" type="line"/>
      <point x="447" y="621" type="line"/>
      <point x="465" y="705" type="line"/>
      <point x="189" y="705" type="line"/>
    </contour>
  </outline>
</glyph>
<glyph name="gravecomb" format="2">
  <advance width="0"/>
  <unicode hex="0300"/>
  <anchor x="290" y="530" name="_top"/>
  <anchor x="284" y="725" name="top"/>
  <outline>
    <contour>
      <point x="269" y="585" type="line"/>
      <point x="350" y="585" type="line"/>
      <point x="310" y="725" type="line"/>
      <point x="189" y="725" type="line"/>
    </contour>
  </outline>
</glyph>
<glyph name="acutecomb" format="2">
  <advance width="0"/>
  <unicode hex="0301"/>
  <anchor x="301" y="530" name="_top"/>
  <anchor x="373" y="725" name="top"/>
  <outline>
    <contour>
      <point x="245" y="585" type="line"/>
      <point x="334" y="585" type="line"/>
      <point x="471" y="725" type="line"/>
      <point x="345" y="725" type="line"/>
    </contour>
  </outline>
</glyph>
<glyph name="uni0302" format="2">
  <advance width="0"/>
  <unicode hex="0302"/>
  <anchor x="288" y="530" name="_top"/>
  <anchor x="330" y="725" name="top"/>
  <outline>
    <contour>
      <point x="144" y="585" type="line"/>
      <point x="238" y="585" type="line"/>
      <point x="342" y="685" type="line"/>
      <point x="349" y="725" type="line"/>
      <point x="274" y="725" type="line"/>
    </contour>
    <contour>
      <point x="374" y="585" type="line"/>
      <point x="456" y="585" type="line"/>
      <point x="386" y="725" type="line"/>
      <point x="311" y="725" type="line"/>
      <point x="312" y="685" type="line"/>
    </contour>
  </outline>
</glyph>
<glyph name="tildecomb" format="2">
  <advance width="0"/>
  <unicode hex="0303"/>
  <anchor x="289" y="530" name="_top"/>
  <anchor x="330" y="725" name="top"/>
  <outline>
    <contour>
      <point x="153" y="585" type="curve"/>
      <point x="221" y="585" type="line"/>
      <point x="225" y="624"/>
      <point x="234" y="642"/>
      <point x="259" y="642" type="curve"/>
      <point x="291" y="642"/>
      <point x="307" y="585"/>
      <point x="368" y="585" type="curve"/>
      <point x="431" y="585"/>
      <point x="465" y="639"/>
      <point x="477" y="725" type="curve"/>
      <point x="409" y="725" type="line"/>
      <point x="406" y="686"/>
      <point x="396" y="668"/>
      <point x="371" y="668" type="curve"/>
      <point x="340" y="668"/>
      <point x="323" y="725"/>
      <point x="262" y="725" type="curve"/>
      <point x="199" y="725"/>
      <point x="166" y="671"/>
    </contour>
  </outline>
</glyph>
<glyph name="uni0304" format="2">
  <advance width="0"/>
  <unicode hex="0304"/>
  <anchor x="290" y="530" name="_top"/>
  <anchor x="327" y="705" name="top"/>
  <outline>
    <contour>
      <point x="171" y="621" type="line"/>
      <point x="447" y="621" type="line"/>
      <point x="465" y="705" type="line"/>
      <point x="189" y="705" type="line"/>
    </contour>
  </outline>
</glyph>
<glyph name="uni0306" format="2">
  <advance width="0"/>
  <unicode hex="0306"/>
  <anchor x="289" y="530" name="_top"/>
  <anchor x="330" y="725" name="top"/>
  <outline>
    <contour>
      <point x="310" y="585" type="curve"/>
      <point x="405" y="585"/>
      <point x="452" y="639"/>
      <point x="470" y="725" type="curve"/>
      <point x="400" y="725" type="line"/>
      <point x="392" y="684"/>
      <point x="361" y="660"/>
      <point x="314" y="660" type="curve"/>
      <point x="276" y="660"/>
      <point x="258" y="677"/>
      <point x="258" y="707" type="curve" smooth="yes"/>
      <point x="258" y="712"/>
      <point x="259" y="719"/>
      <point x="260" y="725" type="curve"/>
      <point x="190" y="725" type="line"/>
      <point x="188" y="713"/>
      <point x="187" y="702"/>
      <point x="187" y="692" type="curve" smooth="yes"/>
      <point x="187" y="629"/>
      <point x="233" y="585"/>
    </contour>
  </outline>
</glyph>
<glyph name="uni0307" format="2">
  <advance width="0"/>
  <unicode hex="0307"/>
  <anchor x="290" y="530" name="_top"/>
  <anchor x="331" y="725" name="top"/>
  <outline>
    <contour>
      <point x="313" y="602" type="curve"/>
      <point x="351" y="602"/>
      <point x="379" y="629"/>
      <point x="379" y="667" type="curve"/>
      <point x="379" y="702"/>
      <point x="356" y="725"/>
      <point x="322" y="725" type="curve"/>
      <point x="284" y="725"/>
      <point x="257" y="698"/>
      <point x="257" y="657" type="curve"/>
      <point x="257" y="625"/>
      <point x="280" y="602"/>
    </contour>
  </outline>
</glyph>
<glyph name="uni0308" format="2">
  <advance width="0"/>
  <unicode hex="0308"/>
  <anchor x="290" y="530" name="_top"/>
  <anchor x="329" y="715" name="top"/>
  <outline>
    <contour>
      <point x="403" y="602" type="curve"/>
      <point x="438" y="602"/>
      <point x="464" y="627"/>
      <point x="464" y="662" type="curve"/>
      <point x="464" y="694"/>
      <point x="443" y="715"/>
      <point x="412" y="715" type="curve"/>
      <point x="377" y="715"/>
      <point x="352" y="690"/>
      <point x="352" y="653" type="curve"/>
      <point x="352" y="623"/>
      <point x="373" y="602"/>
    </contour>
    <contour>
      <point x="221" y="602" type="curve"/>
      <point x="256" y="602"/>
      <point x="282" y="627"/>
      <point x="282" y="662" type="curve"/>
      <point x="282" y="694"/>
      <point x="261" y="715"/>
      <point x="230" y="715" type="curve"/>
      <point x="195" y="715"/>
      <point x="170" y="690"/>
      <point x="170" y="653" type="curve"/>
      <point x="170" y="623"/>
      <point x="191" y="602"/>
    </contour>
  </outline>
</glyph>
<glyph name="uni030A" format="2">
  <advance width="0"/>
  <unicode hex="030A"/>
  <anchor x="288" y="530" name="_top"/>
  <anchor x="323" y="728" name="top"/>
  <outline>
    <contour>
      <point x="305" y="575" type="curve" smooth="yes"/>
      <point x="370" y="575"/>
      <point x="414" y="622"/>
      <point x="414" y="680" type="curve" smooth="yes"/>
      <point x="414" y="728"/>
      <point x="380" y="758"/>
      <point x="330" y="758" type="curve" smooth="yes"/>
      <point x="265" y="758"/>
      <point x="221" y="711"/>
      <point x="221" y="653" type="curve" smooth="yes"/>
      <point x="221" y="605"/>
      <point x="255" y="575"/>
    </contour>
    <contour>
      <point x="311" y="630" type="curve" smooth="yes"/>
      <point x="292" y="630"/>
      <point x="283" y="641"/>
      <point x="283" y="658" type="curve" smooth="yes"/>
      <point x="283" y="681"/>
      <point x="300" y="703"/>
      <point x="324" y="703" type="curve" smooth="yes"/>
      <point x="343" y="703"/>
      <point x="352" y="692"/>
      <point x="352" y="675" type="curve" smooth="yes"/>
      <point x="352" y="652"/>
      <point x="335" y="630"/>
    </contour>
  </outline>
</glyph>
<glyph name="uni030B" format="2">
  <advance width="0"/>
  <unicode hex="030B"/>
  <anchor x="289" y="530" name="_top"/>
  <anchor x="382" y="725" name="top"/>
  <outline>
    <contour>
      <point x="327" y="585" type="line"/>
      <point x="410" y="585" type="line"/>
      <point x="540" y="725" type="line"/>
      <point x="427" y="725" type="line"/>
    </contour>
    <contour>
      <point x="195" y="585" type="line"/>
      <point x="278" y="585" type="line"/>
      <point x="378" y="725" type="line"/>
      <point x="275" y="725" type="line"/>
    </contour>
  </outline>
</glyph>
<glyph name="uni030C" format="2">
  <advance width="0"/>
  <unicode hex="030C"/>
  <anchor x="289" y="530" name="_top"/>
  <anchor x="330" y="725" name="top"/>
  <outline>
    <contour>
      <point x="281" y="585" type="line"/>
      <point x="356" y="585" type="line"/>
      <point x="486" y="725" type="line"/>
      <point x="392" y="725" type="line"/>
      <point x="288" y="625" type="line"/>
    </contour>
    <contour>
      <point x="244" y="585" type="line"/>
      <point x="319" y="585" type="line"/>
      <point x="318" y="625" type="line"/>
      <point x="256" y="725" type="line"/>
      <point x="174" y="725" type="line"/>
    </contour>
  </outline>
</glyph>
<glyph name="uni0326" format="2">
  <advance width="0"/>
  <unicode hex="0326"/>
  <anchor x="177" y="0" name="_bottom"/>
  <outline>
    <contour>
      <point x="72" y="-275" type="line"/>
      <point x="135" y="-275" type="line"/>
      <point x="219" y="-72" type="line"/>
      <point x="115" y="-72" type="line"/>
    </contour>
  </outline>
</glyph>
<glyph name="uni0327" format="2">
  <advance width="0"/>
  <unicode hex="0327"/>
  <anchor x="179" y="0" name="_bottom"/>
  <anchor x="139" y="-185" name="bottom"/>
  <outline>
    <contour>
      <point x="130" y="-185" type="curve"/>
      <point x="198" y="-185"/>
      <point x="242" y="-144"/>
      <point x="242" y="-96" type="curve"/>
      <point x="242" y="-55"/>
      <point x="213" y="-29"/>
      <point x="172" y="-29" type="curve"/>
      <point x="181" y="-43" type="line"/>
      <point x="198" y="9" type="line"/>
      <point x="142" y="11" type="line"/>
      <point x="111" y="-73" type="line"/>
      <point x="123" y="-71"/>
      <point x="130" y="-70"/>
      <point x="141" y="-70" type="curve"/>
      <point x="163" y="-70"/>
      <point x="174" y="-79"/>
      <point x="174" y="-94" type="curve"/>
      <point x="174" y="-108"/>
      <point x="160" y="-119"/>
      <point x="135" y="-119" type="curve"/>
      <point x="115" y="-119"/>
      <point x="100" y="-114"/>
      <point x="84" y="-105" type="curve"/>
      <point x="57" y="-169" type="line"/>
      <point x="80" y="-180"/>
      <point x="104" y="-185"/>
    </contour>
  </outline>
</glyph>
<glyph name="uni0328" format="2">
  <advance width="0"/>
  <unicode hex="0328"/>
  <anchor x="230" y="0" name="_ogonek"/>
  <outline>
    <contour>
      <point x="104" y="-185" type="curve"/>
      <point x="136" y="-185"/>
      <point x="173" y="-176"/>
      <point x="195" y="-165" type="curve"/>
      <point x="203" y="-84" type="line"/>
      <point x="178" y="-96"/>
      <point x="147" y="-106"/>
      <point x="121" y="-106" type="curve"/>
      <point x="110" y="-106"/>
      <point x="104" y="-101"/>
      <point x="104" y="-93" type="curve" smooth="yes"/>
      <point x="104" y="-72"/>
      <point x="141" y="-38"/>
      <point x="230" y="0" type="curve"/>
      <point x="130" y="0" type="line"/>
      <point x="45" y="-35"/>
      <point x="16" y="-74"/>
      <point x="16" y="-118" type="curve"/>
      <point x="16" y="-155"/>
      <point x="42" y="-185"/>
    </contour>
  </outline>
</glyph>
<glyph name="uni03A9" format="2">
  <advance width="690"/>
  <unicode hex="03A9"/>
  <outline>
    <contour>
      <point x="255" y="128" type="curve"/>
      <point x="272" y="205" type="line"/>
      <point x="201" y="224"/>
      <point x="155" y="272"/>
      <point x="155" y="373" type="curve"/>
      <point x="155" y="493"/>
      <point x="251" y="593"/>
      <point x="398" y="593" type="curve"/>
      <point x="502" y="593"/>
      <point x="565" y="539"/>
      <point x="565" y="445" type="curve"/>
      <point x="565" y="314"/>
      <point x="468" y="231"/>
      <point x="362" y="205" type="curve"/>
      <point x="345" y="128" type="line"/>
      <point x="518" y="147"/>
      <point x="673" y="286"/>
      <point x="673" y="462" type="curve"/>
      <point x="673" y="602"/>
      <point x="561" y="700"/>
      <point x="404" y="700" type="curve"/>
      <point x="198" y="700"/>
      <point x="49" y="552"/>
      <point x="49" y="369" type="curve"/>
      <point x="49" y="236"/>
      <point x="134" y="160"/>
    </contour>
    <contour>
      <point x="-32" y="0" type="line"/>
      <point x="228" y="0" type="line"/>
      <point x="248" y="96" type="line"/>
      <point x="-12" y="96" type="line"/>
    </contour>
    <contour>
      <point x="128" y="0" type="line"/>
      <point x="228" y="0" type="line"/>
      <point x="266" y="180" type="line"/>
      <point x="166" y="180" type="line"/>
    </contour>
    <contour>
      <point x="318" y="0" type="line"/>
      <point x="418" y="0" type="line"/>
      <point x="456" y="180" type="line"/>
      <point x="356" y="180" type="line"/>
    </contour>
    <contour>
      <point x="318" y="0" type="line"/>
      <point x="578" y="0" type="line"/>
      <point x="598" y="96" type="line"/>
      <point x="338" y="96" type="line"/>
    </contour>
  </outline>
</glyph>
<glyph name="uni03BC" format="2">
  <advance width="570"/>
  <unicode hex="03BC"/>
  <outline>
    <contour>
      <point x="-44" y="-175" type="line"/>
      <point x="56" y="-175" type="line"/>
      <point x="206" y="530" type="line"/>
      <point x="106" y="530" type="line"/>
    </contour>
    <contour>
      <point x="213" y="-10" type="curve"/>
      <point x="301" y="-10"/>
      <point x="379" y="79"/>
      <point x="409" y="221" type="curve"/>
      <point x="380" y="221" type="line"/>
      <point x="360" y="127"/>
      <point x="297" y="78"/>
      <point x="230" y="78" type="curve"/>
      <point x="163" y="78"/>
      <point x="120" y="127"/>
      <point x="140" y="221" type="curve"/>
      <point x="109" y="198" type="line"/>
      <point x="82" y="70"/>
      <point x="126" y="-10"/>
    </contour>
    <contour>
      <point x="333" y="0" type="line"/>
      <point x="433" y="0" type="line"/>
      <point x="546" y="530" type="line"/>
      <point x="446" y="530" type="line"/>
    </contour>
  </outline>
</glyph>
<glyph name="pi" format="2">
  <advance width="612"/>
  <unicode hex="03C0"/>
  <outline>
    <contour>
      <point x="452" y="-10" type="curve"/>
      <point x="474" y="-10"/>
      <point x="497" y="-7"/>
      <point x="520" y="0" type="curve"/>
      <point x="539" y="91" type="line"/>
      <point x="521" y="84"/>
      <point x="505" y="80"/>
      <point x="487" y="80" type="curve"/>
      <point x="458" y="80"/>
      <point x="439" y="91"/>
      <point x="439" y="119" type="curve"/>
      <point x="439" y="128"/>
      <point x="441" y="138"/>
      <point x="443" y="147" type="curve" smooth="yes"/>
      <point x="525" y="530" type="line"/>
      <point x="425" y="530" type="line"/>
      <point x="344" y="150" type="line"/>
      <point x="340" y="133"/>
      <point x="338" y="117"/>
      <point x="338" y="102" type="curve" smooth="yes"/>
      <point x="338" y="33"/>
      <point x="377" y="-10"/>
    </contour>
    <contour>
      <point x="42" y="0" type="line"/>
      <point x="142" y="0" type="line"/>
      <point x="255" y="530" type="line"/>
      <point x="155" y="530" type="line"/>
    </contour>
    <contour>
      <point x="36" y="443" type="line"/>
      <point x="614" y="443" type="line"/>
      <point x="633" y="530" type="line"/>
      <point x="55" y="530" type="line"/>
    </contour>
  </outline>
</glyph>
<glyph name="endash" format="2">
  <advance width="494"/>
  <unicode hex="2013"/>
  <outline>
    <contour>
      <point x="42" y="261" type="line"/>
      <point x="417" y="261" type="line"/>
      <point x="436" y="346" type="line"/>
      <point x="61" y="346" type="line"/>
    </contour>
  </outline>
</glyph>
<glyph name="emdash" format="2">
  <advance width="814"/>
  <unicode hex="2014"/>
  <outline>
    <contour>
      <point x="12" y="261" type="line"/>
      <point x="767" y="261" type="line"/>
      <point x="786" y="346" type="line"/>
      <point x="31" y="346" type="line"/>
    </contour>
  </outline>
</glyph>
<glyph name="quotedblbase" format="2">
  <advance width="352"/>
  <unicode hex="201E"/>
  <outline>
    <contour>
      <point x="97" y="-160" type="line"/>
      <point x="167" y="-160" type="line"/>
      <point x="269" y="113" type="line"/>
      <point x="155" y="113" type="line"/>
    </contour>
    <contour>
      <point x="-63" y="-160" type="line"/>
      <point x="7" y="-160" type="line"/>
      <point x="109" y="113" type="line"/>
      <point x="-5" y="113" type="line"/>
    </contour>
  </outline>
</glyph>
<glyph name="dagger" format="2">
  <advance width="389"/>
  <unicode hex="2020"/>
  <outline>
    <contour>
      <point x="91" y="0" type="line"/>
      <point x="153" y="0" type="line"/>
      <point x="241" y="311" type="line"/>
      <point x="322" y="690" type="line"/>
      <point x="217" y="690" type="line"/>
      <point x="136" y="311" type="line"/>
    </contour>
    <contour>
      <point x="51" y="443" type="line"/>
      <point x="381" y="443" type="line"/>
      <point x="400" y="530" type="line"/>
      <point x="70" y="530" type="line"/>
    </contour>
  </outline>
</glyph>
<glyph name="daggerdbl" format="2">
  <advance width="389"/>
  <unicode hex="2021"/>
  <outline>
    <contour>
      <point x="70" y="0" type="line"/>
      <point x="175" y="0" type="line"/>
      <point x="322" y="690" type="line"/>
      <point x="217" y="690" type="line"/>
    </contour>
    <contour>
      <point x="-9" y="160" type="line"/>
      <point x="321" y="160" type="line"/>
      <point x="340" y="247" type="line"/>
      <point x="10" y="247" type="line"/>
    </contour>
    <contour>
      <point x="51" y="443" type="line"/>
      <point x="381" y="443" type="line"/>
      <point x="400" y="530" type="line"/>
      <point x="70" y="530" type="line"/>
    </contour>
  </outline>
</glyph>
<glyph name="ellipsis" format="2">
  <advance width="661"/>
  <unicode hex="2026"/>
  <outline>
    <contour>
      <point x="485" y="-10" type="curve" smooth="yes"/>
      <point x="526" y="-10"/>
      <point x="556" y="19"/>
      <point x="556" y="61" type="curve" smooth="yes"/>
      <point x="556" y="98"/>
      <point x="531" y="123"/>
      <point x="494" y="123" type="curve" smooth="yes"/>
      <point x="453" y="123"/>
      <point x="424" y="94"/>
      <point x="424" y="50" type="curve" smooth="yes"/>
      <point x="424" y="15"/>
      <point x="449" y="-10"/>
    </contour>
    <contour>
      <point x="45" y="-10" type="curve" smooth="yes"/>
      <point x="86" y="-10"/>
      <point x="116" y="19"/>
      <point x="116" y="61" type="curve" smooth="yes"/>
      <point x="116" y="98"/>
      <point x="91" y="123"/>
      <point x="54" y="123" type="curve" smooth="yes"/>
      <point x="13" y="123"/>
      <point x="-16" y="94"/>
      <point x="-16" y="50" type="curve" smooth="yes"/>
      <point x="-16" y="15"/>
      <point x="9" y="-10"/>
    </contour>
    <contour>
      <point x="265" y="-10" type="curve" smooth="yes"/>
      <point x="306" y="-10"/>
      <point x="336" y="19"/>
      <point x="336" y="61" type="curve" smooth="yes"/>
      <point x="336" y="98"/>
      <point x="311" y="123"/>
      <point x="274" y="123" type="curve" smooth="yes"/>
      <point x="233" y="123"/>
      <point x="204" y="94"/>
      <point x="204" y="50" type="curve" smooth="yes"/>
      <point x="204" y="15"/>
      <point x="229" y="-10"/>
    </contour>
  </outline>
</glyph>
<glyph name="guilsinglright" format="2">
  <advance width="250"/>
  <unicode hex="203A"/>
  <outline>
    <contour>
      <point x="-51" y="80" type="line"/>
      <point x="64" y="80" type="line"/>
      <point x="213" y="257" type="line"/>
      <point x="227" y="323" type="line"/>
      <point x="137" y="500" type="line"/>
      <point x="38" y="500" type="line"/>
      <point x="140" y="300" type="line"/>
    </contour>
  </outline>
</glyph>
<glyph name="fraction" format="2">
  <advance width="510"/>
  <unicode hex="2044"/>
  <outline>
    <contour>
      <point x="-93" y="0" type="line"/>
      <point x="20" y="0" type="line"/>
      <point x="605" y="690" type="line"/>
      <point x="492" y="690" type="line"/>
    </contour>
  </outline>
</glyph>
<glyph name="uni2113" format="2">
  <advance width="545"/>
  <unicode hex="2113"/>
  <outline>
    <contour>
      <point x="-39" y="66" type="curve"/>
      <point x="-4" y="-10" type="line"/>
      <point x="282" y="145"/>
      <point x="511" y="381"/>
      <point x="511" y="559" type="curve"/>
      <point x="511" y="644"/>
      <point x="466" y="700"/>
      <point x="383" y="700" type="curve"/>
      <point x="202" y="700"/>
      <point x="57" y="452"/>
      <point x="57" y="227" type="curve"/>
      <point x="57" y="72"/>
      <point x="130" y="-10"/>
      <point x="268" y="-10" type="curve"/>
      <point x="329" y="-10"/>
      <point x="391" y="11"/>
      <point x="448" y="49" type="curve"/>
      <point x="403" y="133" type="line"/>
      <point x="361" y="102"/>
      <point x="316" y="87"/>
      <point x="277" y="87" type="curve"/>
      <point x="202" y="87"/>
      <point x="161" y="137"/>
      <point x="161" y="224" type="curve"/>
      <point x="161" y="374"/>
      <point x="268" y="605"/>
      <point x="372" y="605" type="curve"/>
      <point x="399" y="605"/>
      <point x="413" y="585"/>
      <point x="413" y="552" type="curve"/>
      <point x="413" y="424"/>
      <point x="235" y="211"/>
    </contour>
  </outline>
</glyph>
<glyph name="trademark" format="2">
  <advance width="770"/>
  <unicode hex="2122"/>
  <outline>
    <contour>
      <point x="496" y="384" type="line"/>
      <point x="561" y="384" type="line"/>
      <point x="515" y="690" type="line"/>
      <point x="443" y="690" type="line"/>
    </contour>
    <contour>
      <point x="185" y="384" type="line"/>
      <point x="262" y="384" type="line"/>
      <point x="262" y="690" type="line"/>
      <point x="185" y="690" type="line"/>
    </contour>
    <contour>
      <point x="100" y="617" type="line"/>
      <point x="347" y="617" type="line"/>
      <point x="347" y="690" type="line"/>
      <point x="100" y="690" type="line"/>
    </contour>
    <contour>
      <point x="378" y="384" type="line"/>
      <point x="451" y="384" type="line"/>
      <point x="451" y="690" type="line"/>
      <point x="378" y="690" type="line"/>
    </contour>
    <contour>
      <point x="544" y="384" type="line"/>
      <point x="608" y="384" type="line"/>
      <point x="661" y="690" type="line"/>
      <point x="593" y="690" type="line"/>
    </contour>
    <contour>
      <point x="653" y="384" type="line"/>
      <point x="730" y="384" type="line"/>
      <point x="730" y="690" type="line"/>
      <point x="653" y="690" type="line"/>
    </contour>
  </outline>
</glyph>
<glyph name="estimated" format="2">
  <advance width="806"/>
  <unicode hex="212E"/>
  <outline>
    <contour>
      <point x="417" y="-10" type="curve" smooth="yes"/>
      <point x="551" y="-10"/>
      <point x="667" y="67"/>
      <point x="726" y="180" type="curve"/>
      <point x="691" y="201" type="line"/>
      <point x="640" y="99"/>
      <point x="536" y="30"/>
      <point x="417" y="30" type="curve" smooth="yes"/>
      <point x="239" y="30"/>
      <point x="93" y="171"/>
      <point x="93" y="345" type="curve" smooth="yes"/>
      <point x="93" y="519"/>
      <point x="232" y="660"/>
      <point x="402" y="660" type="curve" smooth="yes"/>
      <point x="572" y="660"/>
      <point x="711" y="519"/>
      <point x="711" y="345" type="curve"/>
      <point x="751" y="345" type="line"/>
      <point x="751" y="540"/>
      <point x="594" y="700"/>
      <point x="402" y="700" type="curve" smooth="yes"/>
      <point x="210" y="700"/>
      <point x="53" y="540"/>
      <point x="53" y="345" type="curve" smooth="yes"/>
      <point x="53" y="150"/>
      <point x="217" y="-10"/>
    </contour>
    <contour>
      <point x="213" y="60" type="line"/>
      <point x="213" y="627" type="line"/>
      <point x="78" y="457" type="line"/>
      <point x="78" y="230" type="line"/>
    </contour>
    <contour>
      <point x="109" y="327" type="line"/>
      <point x="751" y="327" type="line"/>
      <point x="751" y="345" type="line"/>
      <point x="720" y="372" type="line"/>
      <point x="109" y="372" type="line"/>
    </contour>
    <contour>
      <point x="591" y="341" type="line"/>
      <point x="726" y="341" type="line"/>
      <point x="726" y="457" type="line"/>
      <point x="591" y="627" type="line"/>
    </contour>
  </outline>
</glyph>
<glyph name="uni2206" format="2">
  <advance width="657"/>
  <unicode hex="2206"/>
  <outline>
    <contour>
      <point x="-58" y="0" type="line"/>
      <point x="57" y="0" type="line"/>
      <point x="429" y="690" type="line"/>
      <point x="327" y="690" type="line"/>
    </contour>
    <contour>
      <point x="20" y="0" type="line"/>
      <point x="488" y="0" type="line"/>
      <point x="508" y="96" type="line"/>
      <point x="40" y="96" type="line"/>
    </contour>
    <contour>
      <point x="467" y="0" type="line"/>
      <point x="572" y="0" type="line"/>
      <point x="481" y="690" type="line"/>
      <point x="383" y="690" type="line"/>
    </contour>
  </outline>
</glyph>
<glyph name="summation" format="2">
  <advance width="610"/>
  <unicode hex="2211"/>
  <outline>
    <contour>
      <point x="-68" y="-123" type="line"/>
      <point x="65" y="-123" type="line"/>
      <point x="393" y="235" type="line"/>
      <point x="404" y="287" type="line"/>
      <point x="213" y="638" type="line"/>
      <point x="94" y="638" type="line"/>
      <point x="304" y="248" type="line"/>
      <point x="312" y="287" type="line"/>
    </contour>
    <contour>
      <point x="-79" y="-175" type="line"/>
      <point x="471" y="-175" type="line"/>
      <point x="491" y="-79" type="line"/>
      <point x="-19" y="-79" type="line"/>
      <point x="-68" y="-123" type="line"/>
    </contour>
    <contour>
      <point x="124" y="594" type="line"/>
      <point x="634" y="594" type="line"/>
      <point x="655" y="690" type="line"/>
      <point x="105" y="690" type="line"/>
      <point x="94" y="638" type="line"/>
    </contour>
  </outline>
</glyph>
<glyph name="uni2219" format="2">
  <advance width="289"/>
  <unicode hex="2219"/>
  <outline>
    <contour>
      <point x="128" y="203" type="curve"/>
      <point x="186" y="203"/>
      <point x="229" y="244"/>
      <point x="229" y="304" type="curve"/>
      <point x="229" y="357"/>
      <point x="193" y="392"/>
      <point x="141" y="392" type="curve"/>
      <point x="82" y="392"/>
      <point x="41" y="351"/>
      <point x="41" y="288" type="curve"/>
      <point x="41" y="239"/>
      <point x="77" y="203"/>
    </contour>
  </outline>
</glyph>
<glyph name="infinity" format="2">
  <advance width="838"/>
  <unicode hex="221E"/>
  <outline>
    <contour>
      <point x="210" y="120" type="curve" smooth="yes"/>
      <point x="417" y="120"/>
      <point x="458" y="410"/>
      <point x="601" y="410" type="curve" smooth="yes"/>
      <point x="647" y="410"/>
      <point x="679" y="369"/>
      <point x="679" y="316" type="curve" smooth="yes"/>
      <point x="679" y="245"/>
      <point x="622" y="196"/>
      <point x="560" y="196" type="curve" smooth="yes"/>
      <point x="413" y="196"/>
      <point x="479" y="486"/>
      <point x="261" y="486" type="curve" smooth="yes"/>
      <point x="146" y="486"/>
      <point x="57" y="391"/>
      <point x="57" y="281" type="curve" smooth="yes"/>
      <point x="57" y="197"/>
      <point x="115" y="120"/>
    </contour>
    <contour>
      <point x="560" y="120" type="curve" smooth="yes"/>
      <point x="675" y="120"/>
      <point x="764" y="215"/>
      <point x="764" y="325" type="curve" smooth="yes"/>
      <point x="764" y="409"/>
      <point x="706" y="486"/>
      <point x="611" y="486" type="curve" smooth="yes"/>
      <point x="405" y="486"/>
      <point x="364" y="196"/>
      <point x="220" y="196" type="curve" smooth="yes"/>
      <point x="174" y="196"/>
      <point x="142" y="237"/>
      <point x="142" y="290" type="curve" smooth="yes"/>
      <point x="142" y="361"/>
      <point x="199" y="410"/>
      <point x="261" y="410" type="curve" smooth="yes"/>
      <point x="409" y="410"/>
      <point x="343" y="120"/>
    </contour>
  </outline>
</glyph>
<glyph name="approxequal" format="2">
  <advance width="532"/>
  <unicode hex="2248"/>
  <outline>
    <contour>
      <point x="332" y="143" type="curve"/>
      <point x="366" y="143"/>
      <point x="398" y="151"/>
      <point x="435" y="163" type="curve"/>
      <point x="452" y="244" type="line"/>
      <point x="415" y="232"/>
      <point x="380" y="224"/>
      <point x="346" y="224" type="curve"/>
      <point x="266" y="224"/>
      <point x="221" y="264"/>
      <point x="141" y="264" type="curve"/>
      <point x="107" y="264"/>
      <point x="75" y="256"/>
      <point x="39" y="244" type="curve"/>
      <point x="22" y="163" type="line"/>
      <point x="58" y="175"/>
      <point x="94" y="183"/>
      <point x="128" y="183" type="curve"/>
      <point x="208" y="183"/>
      <point x="252" y="143"/>
    </contour>
    <contour>
      <point x="375" y="343" type="curve"/>
      <point x="409" y="343"/>
      <point x="441" y="351"/>
      <point x="477" y="363" type="curve"/>
      <point x="494" y="444" type="line"/>
      <point x="458" y="432"/>
      <point x="422" y="424"/>
      <point x="388" y="424" type="curve"/>
      <point x="308" y="424"/>
      <point x="264" y="464"/>
      <point x="184" y="464" type="curve"/>
      <point x="150" y="464"/>
      <point x="118" y="456"/>
      <point x="81" y="444" type="curve"/>
      <point x="64" y="363" type="line"/>
      <point x="101" y="375"/>
      <point x="136" y="383"/>
      <point x="170" y="383" type="curve"/>
      <point x="250" y="383"/>
      <point x="295" y="343"/>
    </contour>
  </outline>
</glyph>
<glyph name="lessequal" format="2">
  <advance width="532"/>
  <unicode hex="2264"/>
  <outline>
    <contour>
      <point x="441" y="193" type="line"/>
      <point x="459" y="276" type="line"/>
      <point x="161" y="351" type="line"/>
      <point x="491" y="426" type="line"/>
      <point x="509" y="513" type="line"/>
      <point x="73" y="404" type="line"/>
      <point x="51" y="302" type="line"/>
    </contour>
    <contour>
      <point x="7" y="93" type="line"/>
      <point x="420" y="93" type="line"/>
      <point x="437" y="174" type="line"/>
      <point x="24" y="174" type="line"/>
    </contour>
  </outline>
</glyph>
<glyph name="greaterequal" format="2">
  <advance width="532"/>
  <unicode hex="2265"/>
  <outline>
    <contour>
      <point x="28" y="193" type="line"/>
      <point x="464" y="302" type="line"/>
      <point x="486" y="404" type="line"/>
      <point x="96" y="513" type="line"/>
      <point x="78" y="430" type="line"/>
      <point x="377" y="355" type="line"/>
      <point x="47" y="280" type="line"/>
    </contour>
    <contour>
      <point x="7" y="93" type="line"/>
      <point x="420" y="93" type="line"/>
      <point x="437" y="174" type="line"/>
      <point x="24" y="174" type="line"/>
    </contour>
  </outline>
</glyph>
<glyph name="fl" format="2">
  <advance width="569"/>
  <unicode hex="FB02"/>
  <anchor x="284.5" y="0" name="caret_1"/>
  <outline>
    <contour>
      <point x="131" y="561" type="curve" smooth="yes"/>
      <point x="12" y="0" type="line"/>
      <point x="112" y="0" type="line"/>
      <point x="230" y="557" type="line" smooth="yes"/>
      <point x="241" y="610"/>
      <point x="272" y="636"/>
      <point x="320" y="636" type="curve"/>
      <point x="343" y="636"/>
      <point x="363" y="630"/>
      <point x="383" y="621" type="curve"/>
      <point x="401" y="708" type="line"/>
      <point x="375" y="718"/>
      <point x="347" y="725"/>
      <point x="315" y="725" type="curve"/>
      <point x="221" y="725"/>
      <point x="156" y="678"/>
    </contour>
    <contour>
      <point x="31" y="443" type="line"/>
      <point x="340" y="443" type="line"/>
      <point x="359" y="530" type="line"/>
      <point x="50" y="530" type="line"/>
    </contour>
    <contour>
      <point x="332" y="0" type="line"/>
      <point x="432" y="0" type="line"/>
      <point x="584" y="715" type="line"/>
      <point x="484" y="715" type="line"/>
    </contour>
  </outline>
</glyph>
<glyph name=".notdef" format="2">
  <advance width="597"/>
  <anchor x="393" y="0" name="bottom"/>
  <anchor x="197" y="0" name="bottomleft"/>
  <anchor x="466" y="345" name="center"/>
  <anchor x="375" y="690" name="top"/>
  <anchor x="392" y="690" name="topright"/>
  <outline>
    <contour>
      <point x="-8" y="-100" type="line"/>
      <point x="430" y="-100" type="line"/>
      <point x="607" y="690" type="line"/>
      <point x="169" y="690" type="line"/>
    </contour>
    <contour>
      <point x="117" y="-4" type="line"/>
      <point x="254" y="594" type="line"/>
      <point x="482" y="594" type="line"/>
      <point x="345" y="-4" type="line"/>
    </contour>
  </outline>
</glyph>
<glyph name="acutecomb.case" format="2">
  <advance width="0"/>
  <anchor x="323" y="690" name="_top"/>
  <anchor x="408" y="845" name="top"/>
  <outline>
    <contour>
      <point x="267" y="735" type="line"/>
      <point x="368" y="735" type="line"/>
      <point x="526" y="845" type="line"/>
      <point x="391" y="845" type="line"/>
    </contour>
  </outline>
</glyph>
<glyph name="comma.tf" format="2">
  <advance width="599"/>
  <outline>
    <contour>
      <point x="126" y="-160" type="line"/>
      <point x="196" y="-160" type="line"/>
      <point x="298" y="113" type="line"/>
      <point x="184" y="113" type="line"/>
    </contour>
  </outline>
</glyph>
<glyph name="dotbelow" format="2">
  <advance width="498"/>
  <anchor x="176" y="0" name="_bottom"/>
  <outline>
    <contour>
      <point x="142" y="-195" type="curve"/>
      <point x="180" y="-195"/>
      <point x="208" y="-168"/>
      <point x="208" y="-130" type="curve"/>
      <point x="208" y="-95"/>
      <point x="185" y="-72"/>
      <point x="151" y="-72" type="curve"/>
      <point x="113" y="-72"/>
      <point x="86" y="-99"/>
      <point x="86" y="-140" type="curve"/>
      <point x="86" y="-172"/>
      <point x="109" y="-195"/>
    </contour>
  </outline>
</glyph>
<glyph name="eight.tf" format="2">
  <advance width="599"/>
  <outline>
    <contour>
      <point x="237" y="-10" type="curve"/>
      <point x="410" y="-10"/>
      <point x="520" y="88"/>
      <point x="520" y="215" type="curve"/>
      <point x="520" y="309"/>
      <point x="443" y="385"/>
      <point x="308" y="385" type="curve" smooth="yes"/>
      <point x="137" y="385"/>
      <point x="14" y="282"/>
      <point x="14" y="167" type="curve"/>
      <point x="14" y="70"/>
      <point x="99" y="-10"/>
    </contour>
    <contour>
      <point x="252" y="81" type="curve"/>
      <point x="170" y="81"/>
      <point x="122" y="124"/>
      <point x="122" y="180" type="curve"/>
      <point x="122" y="254"/>
      <point x="184" y="319"/>
      <point x="294" y="319" type="curve" smooth="yes"/>
      <point x="374" y="319"/>
      <point x="415" y="275"/>
      <point x="415" y="213" type="curve"/>
      <point x="415" y="146"/>
      <point x="373" y="81"/>
    </contour>
    <contour>
      <point x="300" y="350" type="curve" smooth="yes"/>
      <point x="459" y="350"/>
      <point x="573" y="438"/>
      <point x="573" y="540" type="curve"/>
      <point x="573" y="630"/>
      <point x="495" y="700"/>
      <point x="366" y="700" type="curve"/>
      <point x="217" y="700"/>
      <point x="100" y="610"/>
      <point x="100" y="499" type="curve" smooth="yes"/>
      <point x="100" y="417"/>
      <point x="175" y="350"/>
    </contour>
    <contour>
      <point x="313" y="407" type="curve" smooth="yes"/>
      <point x="243" y="407"/>
      <point x="205" y="444"/>
      <point x="205" y="493" type="curve" smooth="yes"/>
      <point x="205" y="558"/>
      <point x="259" y="609"/>
      <point x="350" y="609" type="curve" smooth="yes"/>
      <point x="422" y="609"/>
      <point x="466" y="574"/>
      <point x="466" y="522" type="curve"/>
      <point x="466" y="458"/>
      <point x="401" y="407"/>
    </contour>
  </outline>
</glyph>
<glyph name="f_f_l" format="2">
  <advance width="889"/>
  <anchor x="296.333" y="0" name="caret_1"/>
  <anchor x="592.667" y="0" name="caret_2"/>
  <outline>
    <contour>
      <point x="451" y="561" type="curve" smooth="yes"/>
      <point x="332" y="0" type="line"/>
      <point x="432" y="0" type="line"/>
      <point x="550" y="557" type="line" smooth="yes"/>
      <point x="561" y="610"/>
      <point x="592" y="636"/>
      <point x="640" y="636" type="curve"/>
      <point x="663" y="636"/>
      <point x="683" y="630"/>
      <point x="703" y="621" type="curve"/>
      <point x="721" y="708" type="line"/>
      <point x="695" y="718"/>
      <point x="667" y="725"/>
      <point x="635" y="725" type="curve"/>
      <point x="541" y="725"/>
      <point x="476" y="678"/>
    </contour>
    <contour>
      <point x="131" y="561" type="curve" smooth="yes"/>
      <point x="12" y="0" type="line"/>
      <point x="112" y="0" type="line"/>
      <point x="230" y="557" type="line" smooth="yes"/>
      <point x="241" y="610"/>
      <point x="272" y="636"/>
      <point x="320" y="636" type="curve"/>
      <point x="343" y="636"/>
      <point x="363" y="630"/>
      <point x="383" y="621" type="curve"/>
      <point x="401" y="708" type="line"/>
      <point x="375" y="718"/>
      <point x="347" y="725"/>
      <point x="315" y="725" type="curve"/>
      <point x="221" y="725"/>
      <point x="156" y="678"/>
    </contour>
    <contour>
      <point x="31" y="443" type="line"/>
      <point x="660" y="443" type="line"/>
      <point x="679" y="530" type="line"/>
      <point x="50" y="530" type="line"/>
    </contour>
    <contour>
      <point x="652" y="0" type="line"/>
      <point x="752" y="0" type="line"/>
      <point x="904" y="715" type="line"/>
      <point x="804" y="715" type="line"/>
    </contour>
  </outline>
</glyph>
<glyph name="f_ij" format="2">
  <advance width="800"/>
  <anchor x="144" y="0" name="bottom_1"/>
  <anchor x="544" y="0" name="bottom_2"/>
  <anchor x="400" y="0" name="caret_1"/>
  <anchor x="296" y="715" name="top_1"/>
  <anchor x="696" y="715" name="top_2"/>
  <outline>
    <contour>
      <point x="131" y="561" type="curve" smooth="yes"/>
      <point x="12" y="0" type="line"/>
      <point x="112" y="0" type="line"/>
      <point x="230" y="557" type="line" smooth="yes"/>
      <point x="241" y="610"/>
      <point x="272" y="636"/>
      <point x="320" y="636" type="curve"/>
      <point x="343" y="636"/>
      <point x="363" y="630"/>
      <point x="383" y="621" type="curve"/>
      <point x="401" y="708" type="line"/>
      <point x="375" y="718"/>
      <point x="347" y="725"/>
      <point x="315" y="725" type="curve"/>
      <point x="221" y="725"/>
      <point x="156" y="678"/>
    </contour>
    <contour>
      <point x="31" y="443" type="line"/>
      <point x="474" y="443" type="line"/>
      <point x="493" y="530" type="line"/>
      <point x="50" y="530" type="line"/>
    </contour>
    <contour>
      <point x="332" y="0" type="line"/>
      <point x="432" y="0" type="line"/>
      <point x="545" y="530" type="line"/>
      <point x="445" y="530" type="line"/>
    </contour>
    <contour>
      <point x="473" y="-185" type="curve"/>
      <point x="567" y="-185"/>
      <point x="633" y="-138"/>
      <point x="658" y="-21" type="curve" smooth="yes"/>
      <point x="775" y="530" type="line"/>
      <point x="675" y="530" type="line"/>
      <point x="558" y="-17" type="line" smooth="yes"/>
      <point x="547" y="-70"/>
      <point x="514" y="-94"/>
      <point x="469" y="-94" type="curve"/>
      <point x="446" y="-94"/>
      <point x="426" y="-88"/>
      <point x="406" y="-79" type="curve"/>
      <point x="387" y="-168" type="line"/>
      <point x="413" y="-178"/>
      <point x="441" y="-185"/>
    </contour>
    <contour>
      <point x="519" y="602" type="curve"/>
      <point x="557" y="602"/>
      <point x="584" y="629"/>
      <point x="584" y="668" type="curve"/>
      <point x="584" y="702"/>
      <point x="561" y="725"/>
      <point x="527" y="725" type="curve"/>
      <point x="489" y="725"/>
      <point x="462" y="698"/>
      <point x="462" y="658" type="curve"/>
      <point x="462" y="625"/>
      <point x="485" y="602"/>
    </contour>
    <contour>
      <point x="749" y="602" type="curve"/>
      <point x="787" y="602"/>
      <point x="814" y="629"/>
      <point x="814" y="668" type="curve"/>
      <point x="814" y="702"/>
      <point x="791" y="725"/>
      <point x="757" y="725" type="curve"/>
      <point x="719" y="725"/>
      <point x="692" y="698"/>
      <point x="692" y="658" type="curve"/>
      <point x="692" y="625"/>
      <point x="715" y="602"/>
    </contour>
  </outline>
</glyph>
<glyph name="five.tf" format="2">
  <advance width="599"/>
  <outline>
    <contour>
      <point x="239" y="-10" type="curve"/>
      <point x="408" y="-10"/>
      <point x="522" y="120"/>
      <point x="522" y="269" type="curve"/>
      <point x="522" y="380"/>
      <point x="450" y="463"/>
      <point x="334" y="463" type="curve"/>
      <point x="248" y="463"/>
      <point x="181" y="416"/>
      <point x="142" y="338" type="curve"/>
      <point x="158" y="338" type="line"/>
      <point x="254" y="638" type="line"/>
      <point x="194" y="590" type="line"/>
      <point x="562" y="590" type="line"/>
      <point x="584" y="690" type="line"/>
      <point x="176" y="690" type="line"/>
      <point x="60" y="304" type="line"/>
      <point x="138" y="304" type="line"/>
      <point x="169" y="342"/>
      <point x="224" y="376"/>
      <point x="291" y="376" type="curve"/>
      <point x="369" y="376"/>
      <point x="410" y="325"/>
      <point x="410" y="257" type="curve"/>
      <point x="410" y="164"/>
      <point x="346" y="85"/>
      <point x="252" y="85" type="curve"/>
      <point x="178" y="85"/>
      <point x="123" y="123"/>
      <point x="123" y="204" type="curve"/>
      <point x="18" y="181" type="line"/>
      <point x="20" y="63"/>
      <point x="117" y="-10"/>
    </contour>
  </outline>
</glyph>
<glyph name="ijacute" format="2">
  <advance width="460"/>
  <outline>
    <contour>
      <point x="133" y="-185" type="curve"/>
      <point x="227" y="-185"/>
      <point x="293" y="-138"/>
      <point x="318" y="-21" type="curve" smooth="yes"/>
      <point x="435" y="530" type="line"/>
      <point x="335" y="530" type="line"/>
      <point x="218" y="-17" type="line" smooth="yes"/>
      <point x="207" y="-70"/>
      <point x="174" y="-94"/>
      <point x="129" y="-94" type="curve"/>
      <point x="106" y="-94"/>
      <point x="86" y="-88"/>
      <point x="66" y="-79" type="curve"/>
      <point x="47" y="-168" type="line"/>
      <point x="73" y="-178"/>
      <point x="101" y="-185"/>
    </contour>
    <contour>
      <point x="-8" y="0" type="line"/>
      <point x="92" y="0" type="line"/>
      <point x="205" y="530" type="line"/>
      <point x="105" y="530" type="line"/>
    </contour>
    <contour>
      <point x="110" y="585" type="line"/>
      <point x="199" y="585" type="line"/>
      <point x="336" y="725" type="line"/>
      <point x="210" y="725" type="line"/>
    </contour>
    <contour>
      <point x="340" y="585" type="line"/>
      <point x="429" y="585" type="line"/>
      <point x="566" y="725" type="line"/>
      <point x="440" y="725" type="line"/>
    </contour>
  </outline>
</glyph>
<glyph name="one.tf" format="2">
  <advance width="599"/>
  <outline>
    <contour>
      <point x="187" y="0" type="line"/>
      <point x="292" y="0" type="line"/>
      <point x="439" y="690" type="line"/>
      <point x="359" y="690" type="line"/>
      <point x="309" y="572" type="line"/>
    </contour>
    <contour>
      <point x="1" y="0" type="line"/>
      <point x="456" y="0" type="line"/>
      <point x="476" y="96" type="line"/>
      <point x="21" y="96" type="line"/>
    </contour>
    <contour>
      <point x="136" y="575" type="curve"/>
      <point x="120" y="499" type="line"/>
      <point x="344" y="499" type="line"/>
      <point x="359" y="690" type="line"/>
      <point x="323" y="608"/>
      <point x="281" y="584"/>
    </contour>
  </outline>
</glyph>
<glyph name="period.tf" format="2">
  <advance width="600"/>
  <outline>
    <contour>
      <point x="234" y="-10" type="curve"/>
      <point x="275" y="-10"/>
      <point x="305" y="19"/>
      <point x="305" y="61" type="curve"/>
      <point x="305" y="98"/>
      <point x="280" y="123"/>
      <point x="243" y="123" type="curve"/>
      <point x="202" y="123"/>
      <point x="173" y="94"/>
      <point x="173" y="50" type="curve"/>
      <point x="173" y="15"/>
      <point x="198" y="-10"/>
    </contour>
  </outline>
</glyph>
<glyph name="seven.tf" format="2">
  <advance width="599"/>
  <outline>
    <contour>
      <point x="134" y="0" type="curve"/>
      <point x="253" y="0" type="line"/>
      <point x="286" y="216"/>
      <point x="386" y="419"/>
      <point x="615" y="638" type="curve"/>
      <point x="488" y="638" type="line"/>
      <point x="284" y="426"/>
      <point x="176" y="212"/>
    </contour>
    <contour>
      <point x="98" y="590" type="line"/>
      <point x="534" y="590" type="line"/>
      <point x="615" y="638" type="line"/>
      <point x="626" y="690" type="line"/>
      <point x="120" y="690" type="line"/>
    </contour>
  </outline>
</glyph>
<glyph name="six.tf" format="2">
  <advance width="601"/>
  <outline>
    <contour>
      <point x="263" y="-10" type="curve"/>
      <point x="425" y="-10"/>
      <point x="538" y="100"/>
      <point x="538" y="248" type="curve"/>
      <point x="538" y="363"/>
      <point x="460" y="437"/>
      <point x="345" y="437" type="curve"/>
      <point x="260" y="437"/>
      <point x="165" y="379"/>
      <point x="132" y="261" type="curve"/>
      <point x="152" y="286" type="line"/>
      <point x="162" y="417"/>
      <point x="226" y="604"/>
      <point x="370" y="604" type="curve"/>
      <point x="431" y="604"/>
      <point x="479" y="573"/>
      <point x="495" y="515" type="curve"/>
      <point x="589" y="557" type="line"/>
      <point x="560" y="649"/>
      <point x="475" y="700"/>
      <point x="381" y="700" type="curve"/>
      <point x="157" y="700"/>
      <point x="37" y="461"/>
      <point x="37" y="229" type="curve"/>
      <point x="37" y="68"/>
      <point x="137" y="-10"/>
    </contour>
    <contour>
      <point x="275" y="85" type="curve"/>
      <point x="192" y="85"/>
      <point x="140" y="133"/>
      <point x="140" y="199" type="curve"/>
      <point x="140" y="261"/>
      <point x="195" y="344"/>
      <point x="307" y="344" type="curve"/>
      <point x="389" y="344"/>
      <point x="427" y="300"/>
      <point x="427" y="241" type="curve"/>
      <point x="427" y="145"/>
      <point x="363" y="85"/>
    </contour>
  </outline>
</glyph>
<glyph name="three.tf" format="2">
  <advance width="600"/>
  <outline>
    <contour>
      <point x="247" y="-10" type="curve"/>
      <point x="412" y="-10"/>
      <point x="520" y="124"/>
      <point x="520" y="254" type="curve"/>
      <point x="520" y="362"/>
      <point x="441" y="428"/>
      <point x="353" y="428" type="curve"/>
      <point x="335" y="428"/>
      <point x="333" y="425"/>
      <point x="313" y="414" type="curve"/>
      <point x="301" y="381" type="line"/>
      <point x="586" y="623" type="line"/>
      <point x="466" y="638" type="line"/>
      <point x="219" y="417" type="line"/>
      <point x="205" y="352" type="line"/>
      <point x="282" y="352" type="line"/>
      <point x="370" y="352"/>
      <point x="409" y="311"/>
      <point x="409" y="240" type="curve"/>
      <point x="409" y="176"/>
      <point x="346" y="85"/>
      <point x="251" y="85" type="curve"/>
      <point x="155" y="85"/>
      <point x="123" y="157"/>
      <point x="128" y="224" type="curve"/>
      <point x="22" y="201" type="line"/>
      <point x="21" y="69"/>
      <point x="103" y="-10"/>
    </contour>
    <contour>
      <point x="120" y="590" type="line"/>
      <point x="499" y="590" type="line"/>
      <point x="586" y="623" type="line"/>
      <point x="601" y="690" type="line"/>
      <point x="142" y="690" type="line"/>
    </contour>
  </outline>
</glyph>
<glyph name="tildecomb.case" format="2">
  <advance width="0"/>
  <anchor x="323" y="690" name="_top"/>
  <outline>
    <contour>
      <point x="174" y="735" type="curve"/>
      <point x="242" y="735" type="line"/>
      <point x="244" y="757"/>
      <point x="257" y="773"/>
      <point x="280" y="773" type="curve"/>
      <point x="316" y="773"/>
      <point x="343" y="735"/>
      <point x="400" y="735" type="curve"/>
      <point x="463" y="735"/>
      <point x="502" y="777"/>
      <point x="514" y="845" type="curve"/>
      <point x="446" y="845" type="line"/>
      <point x="444" y="823"/>
      <point x="431" y="807"/>
      <point x="408" y="807" type="curve"/>
      <point x="373" y="807"/>
      <point x="345" y="845"/>
      <point x="288" y="845" type="curve"/>
      <point x="225" y="845"/>
      <point x="186" y="803"/>
    </contour>
  </outline>
</glyph>
<glyph name="two.tf" format="2">
  <advance width="601"/>
  <outline>
    <contour>
      <point x="120" y="52" type="line"/>
      <point x="381" y="255" type="line" smooth="yes"/>
      <point x="497" y="346"/>
      <point x="560" y="434"/>
      <point x="560" y="522" type="curve"/>
      <point x="560" y="614"/>
      <point x="482" y="700"/>
      <point x="354" y="700" type="curve"/>
      <point x="211" y="700"/>
      <point x="123" y="623"/>
      <point x="88" y="473" type="curve"/>
      <point x="186" y="453" type="line"/>
      <point x="206" y="557"/>
      <point x="261" y="608"/>
      <point x="342" y="608" type="curve"/>
      <point x="409" y="608"/>
      <point x="449" y="566"/>
      <point x="449" y="512" type="curve" smooth="yes"/>
      <point x="449" y="462"/>
      <point x="399" y="393"/>
      <point x="310" y="319" type="curve" smooth="yes"/>
      <point x="4" y="67" type="line"/>
    </contour>
    <contour>
      <point x="-10" y="0" type="line"/>
      <point x="469" y="0" type="line"/>
      <point x="490" y="100" type="line"/>
      <point x="91" y="100" type="line"/>
      <point x="4" y="67" type="line"/>
    </contour>
  </outline>
</glyph>
<glyph name="uni0302.case" format="2">
  <advance width="0"/>
  <anchor x="323.664" y="690" name="_top"/>
  <outline>
    <contour>
      <point x="150" y="735" type="line"/>
      <point x="257" y="735" type="line"/>
      <point x="378" y="814" type="line"/>
      <point x="393" y="845" type="line"/>
      <point x="288" y="845" type="line"/>
    </contour>
    <contour>
      <point x="423" y="735" type="line"/>
      <point x="516" y="735" type="line"/>
      <point x="426" y="845" type="line"/>
      <point x="321" y="845" type="line"/>
      <point x="335" y="814" type="line"/>
    </contour>
  </outline>
</glyph>
<glyph name="uni0304.case" format="2">
  <advance width="0"/>
  <anchor x="322.664" y="690" name="_top"/>
  <outline>
    <contour>
      <point x="178" y="753" type="line"/>
      <point x="494" y="753" type="line"/>
      <point x="512" y="837" type="line"/>
      <point x="196" y="837" type="line"/>
    </contour>
  </outline>
</glyph>
<glyph name="uni0306.case" format="2">
  <advance width="0"/>
  <anchor x="324" y="690" name="_top"/>
  <anchor x="357" y="845" name="top"/>
  <outline>
    <contour>
      <point x="342" y="735" type="curve" smooth="yes"/>
      <point x="442" y="735"/>
      <point x="489" y="777"/>
      <point x="507" y="845" type="curve"/>
      <point x="437" y="845" type="line"/>
      <point x="429" y="820"/>
      <point x="402" y="805"/>
      <point x="345" y="805" type="curve" smooth="yes"/>
      <point x="332" y="805"/>
      <point x="288" y="809"/>
      <point x="277" y="845" type="curve"/>
      <point x="207" y="845" type="line"/>
      <point x="206" y="838"/>
      <point x="206" y="833"/>
      <point x="206" y="828" type="curve" smooth="yes"/>
      <point x="206" y="773"/>
      <point x="254" y="735"/>
    </contour>
  </outline>
</glyph>
<glyph name="uni0307.case" format="2">
  <advance width="0"/>
  <anchor x="323.664" y="690" name="_top"/>
  <outline>
    <contour>
      <point x="341" y="735" type="curve" smooth="yes"/>
      <point x="379" y="735"/>
      <point x="407" y="760"/>
      <point x="407" y="795" type="curve" smooth="yes"/>
      <point x="407" y="827"/>
      <point x="384" y="848"/>
      <point x="350" y="848" type="curve" smooth="yes"/>
      <point x="312" y="848"/>
      <point x="285" y="823"/>
      <point x="285" y="785" type="curve" smooth="yes"/>
      <point x="285" y="756"/>
      <point x="308" y="735"/>
    </contour>
  </outline>
</glyph>
<glyph name="uni0308.case" format="2">
  <advance width="0"/>
  <anchor x="322.664" y="690" name="_top"/>
  <outline>
    <contour>
      <point x="442" y="742" type="curve"/>
      <point x="477" y="742"/>
      <point x="503" y="767"/>
      <point x="503" y="802" type="curve"/>
      <point x="503" y="834"/>
      <point x="482" y="855"/>
      <point x="451" y="855" type="curve"/>
      <point x="416" y="855"/>
      <point x="391" y="830"/>
      <point x="391" y="793" type="curve"/>
      <point x="391" y="763"/>
      <point x="412" y="742"/>
    </contour>
    <contour>
      <point x="239" y="742" type="curve"/>
      <point x="274" y="742"/>
      <point x="300" y="767"/>
      <point x="300" y="802" type="curve"/>
      <point x="300" y="834"/>
      <point x="279" y="855"/>
      <point x="248" y="855" type="curve"/>
      <point x="213" y="855"/>
      <point x="188" y="830"/>
      <point x="188" y="793" type="curve"/>
      <point x="188" y="763"/>
      <point x="209" y="742"/>
    </contour>
  </outline>
</glyph>
<glyph name="uni030A.case" format="2">
  <advance width="0"/>
  <anchor x="323" y="690" name="_top"/>
  <anchor x="369" y="878" name="top"/>
  <outline>
    <contour>
      <point x="339" y="735" type="curve" smooth="yes"/>
      <point x="404" y="735"/>
      <point x="448" y="779"/>
      <point x="448" y="833" type="curve" smooth="yes"/>
      <point x="448" y="878"/>
      <point x="413" y="908"/>
      <point x="362" y="908" type="curve" smooth="yes"/>
      <point x="297" y="908"/>
      <point x="253" y="864"/>
      <point x="253" y="810" type="curve" smooth="yes"/>
      <point x="253" y="765"/>
      <point x="288" y="735"/>
    </contour>
    <contour>
      <point x="344" y="790" type="curve" smooth="yes"/>
      <point x="326" y="790"/>
      <point x="316" y="800"/>
      <point x="316" y="815" type="curve" smooth="yes"/>
      <point x="316" y="836"/>
      <point x="332" y="853"/>
      <point x="357" y="853" type="curve" smooth="yes"/>
      <point x="375" y="853"/>
      <point x="385" y="843"/>
      <point x="385" y="828" type="curve" smooth="yes"/>
      <point x="385" y="807"/>
      <point x="369" y="790"/>
    </contour>
  </outline>
</glyph>
<glyph name="uni030B.case" format="2">
  <advance width="0"/>
  <anchor x="323" y="690" name="_top"/>
  <outline>
    <contour>
      <point x="365" y="735" type="line"/>
      <point x="454" y="735" type="line"/>
      <point x="613" y="845" type="line"/>
      <point x="489" y="845" type="line"/>
    </contour>
    <contour>
      <point x="219" y="735" type="line"/>
      <point x="307" y="735" type="line"/>
      <point x="428" y="845" type="line"/>
      <point x="312" y="845" type="line"/>
    </contour>
  </outline>
</glyph>
<glyph name="uni030C.alt" format="2">
  <advance width="0"/>
  <anchor x="262" y="715" name="_topright"/>
  <outline>
    <contour>
      <point x="224" y="442" type="line"/>
      <point x="284" y="442" type="line"/>
      <point x="386" y="715" type="line"/>
      <point x="282" y="715" type="line"/>
    </contour>
  </outline>
</glyph>
<glyph name="uni030C.case" format="2">
  <advance width="0"/>
  <anchor x="324.664" y="690" name="_top"/>
  <outline>
    <contour>
      <point x="298" y="735" type="line"/>
      <point x="403" y="735" type="line"/>
      <point x="541" y="845" type="line"/>
      <point x="434" y="845" type="line"/>
      <point x="313" y="766" type="line"/>
    </contour>
    <contour>
      <point x="265" y="735" type="line"/>
      <point x="370" y="735" type="line"/>
      <point x="356" y="766" type="line"/>
      <point x="268" y="845" type="line"/>
      <point x="175" y="845" type="line"/>
    </contour>
  </outline>
</glyph>
<glyph name="uni0326.alt" format="2">
  <advance width="0"/>
  <anchor x="290" y="530" name="_top"/>
  <outline>
    <contour>
      <point x="248" y="602" type="line"/>
      <point x="352" y="602" type="line"/>
      <point x="395" y="805" type="line"/>
      <point x="332" y="805" type="line"/>
    </contour>
  </outline>
</glyph>
<glyph name="zero.tf" format="2">
  <advance width="599"/>
  <outline>
    <contour>
      <point x="241" y="-10" type="curve"/>
      <point x="430" y="-10"/>
      <point x="569" y="197"/>
      <point x="569" y="476" type="curve"/>
      <point x="569" y="616"/>
      <point x="486" y="700"/>
      <point x="361" y="700" type="curve"/>
      <point x="170" y="700"/>
      <point x="31" y="493"/>
      <point x="31" y="214" type="curve"/>
      <point x="31" y="74"/>
      <point x="114" y="-10"/>
    </contour>
    <contour>
      <point x="255" y="87" type="curve"/>
      <point x="183" y="87"/>
      <point x="140" y="127"/>
      <point x="140" y="228" type="curve"/>
      <point x="140" y="436"/>
      <point x="231" y="603"/>
      <point x="346" y="603" type="curve"/>
      <point x="417" y="603"/>
      <point x="460" y="563"/>
      <point x="460" y="462" type="curve"/>
      <point x="460" y="254"/>
      <point x="369" y="87"/>
    </contour>
  </outline>
</glyph>
